<svg xmlns="http://www.w3.org/2000/svg" width="16.832" height="20.001" viewBox="0 0 16.832 20.001">
  <g id="Group_254" data-name="Group 254" transform="translate(-624.891 -240)">
    <path id="Path_390" data-name="Path 390" d="M625.085,252.762l0-.04,0-.006,0-.014a5.322,5.322,0,0,1-.119-.752l0-.044-.016-.125a.1.1,0,0,0-.009-.065l-.021-.189a.014.014,0,0,0,0-.02,1.608,1.608,0,0,1-.02-.277.207.207,0,0,0,0-.1c0-.117-.02-.233-.013-.351,0-.065,0-.131,0-.2l.013-.023c0-.1,0-.21,0-.315a.474.474,0,0,1,.015-.124.193.193,0,0,0,.006-.086l.013-.122a.225.225,0,0,0,.013-.106v-.04a.171.171,0,0,0,.021-.106l.025-.166a.021.021,0,0,0,0-.026l0-.058a.074.074,0,0,0,.017-.062,7.126,7.126,0,0,1,.2-.79,5.835,5.835,0,0,1,.525-1.192,5.178,5.178,0,0,1,1.213-1.439,5.818,5.818,0,0,1,.795-.535,5.186,5.186,0,0,1,.742-.334,4.34,4.34,0,0,1,.736-.2c.188-.034.38-.045.57-.067a.406.406,0,0,0,.05-.012,1.88,1.88,0,0,0,.375.006,5.731,5.731,0,0,1,.758.135c.215.056.426.123.637.191.258.084.507.189.763.276.282.1.565.189.856.259a.225.225,0,0,0,.093,0,.334.334,0,0,0,.241,0,.237.237,0,0,0,.1-.015c.232-.059.458-.137.685-.212.36-.119.711-.259,1.071-.375a6.525,6.525,0,0,1,1.059-.261.861.861,0,0,0,.111-.028h.047c.11-.006.219-.012.328-.02.038,0,.076-.01.113-.016l.1,0,.083,0a.2.2,0,0,0,.151.015.892.892,0,0,0,.206.017l.067,0c.239.047.48.078.717.135a5.308,5.308,0,0,1,1.088.384,4.479,4.479,0,0,1,1.057.72,5.593,5.593,0,0,1,.6.674c.037.048.035.054-.016.086a5.359,5.359,0,0,0-1.076.869,3.914,3.914,0,0,0-.764,1.15,2.743,2.743,0,0,0-.217.673c-.01.065-.038.126-.053.19-.036.149-.022.3-.054.454l-.006.063c-.011.229-.009.458,0,.687l.013.027-.005.04a.036.036,0,0,0,0,.044.1.1,0,0,1,.006.062.073.073,0,0,0,.014.061.175.175,0,0,1,0,.085.028.028,0,0,0,0,.04,5.189,5.189,0,0,0,.142.64,3.413,3.413,0,0,0,.151.422,3.905,3.905,0,0,0,.3.575,4.745,4.745,0,0,0,.956,1.087,4.838,4.838,0,0,0,.809.552c.1.057.213.1.321.149.043.019.048.043.033.082-.028.078-.055.158-.085.235-.1.255-.193.514-.307.764-.128.282-.264.56-.413.831s-.31.536-.485.792c-.186.273-.381.54-.58.8a7.983,7.983,0,0,1-.84.969,3.784,3.784,0,0,1-.458.378,3.043,3.043,0,0,1-.442.256,2.907,2.907,0,0,1-.573.187,2.068,2.068,0,0,1-.259.026,3.178,3.178,0,0,0-.338,0,3.475,3.475,0,0,1-.856-.175c-.257-.077-.5-.18-.753-.277a5.192,5.192,0,0,0-1.024-.279,4.068,4.068,0,0,0-.583-.045c-.144,0-.289.034-.434.035a3.023,3.023,0,0,0-.584.1,3.2,3.2,0,0,0-.46.137c-.268.1-.531.206-.8.3-.1.034-.2.063-.3.1a.156.156,0,0,0-.085.016,3.091,3.091,0,0,1-.564.112.232.232,0,0,0-.149.018,2.409,2.409,0,0,1-.415-.037,2.106,2.106,0,0,1-.795-.3,3.59,3.59,0,0,1-.629-.483,7.785,7.785,0,0,1-.71-.765c-.25-.3-.481-.623-.712-.942a9.894,9.894,0,0,1-.61-.959c-.177-.312-.335-.633-.482-.961-.119-.263-.227-.53-.331-.8-.082-.21-.154-.425-.22-.641-.048-.157-.1-.313-.141-.471-.065-.241-.119-.486-.177-.729-.009-.041-.016-.082-.024-.123Z"/>
    <path id="Path_391" data-name="Path 391" d="M633.472,243.3a5.577,5.577,0,0,1,.258-.66,5.1,5.1,0,0,1,.419-.709,4.891,4.891,0,0,1,.478-.578,4.1,4.1,0,0,1,.6-.505,4.625,4.625,0,0,1,.524-.322,5.2,5.2,0,0,1,.726-.317,4.382,4.382,0,0,1,.6-.164c.129-.025.261-.035.392-.05.037,0,.028.032.035.053a.169.169,0,0,0,.011.089l.011.145v.21l-.014.166a.137.137,0,0,0-.006.067l-.014.123a.112.112,0,0,0-.008.065,4.243,4.243,0,0,1-.125.6,2.856,2.856,0,0,1-.1.3,4.817,4.817,0,0,1-.33.673,5.413,5.413,0,0,1-.753.982,4.677,4.677,0,0,1-1.016.81,3.258,3.258,0,0,1-.966.381,3.528,3.528,0,0,1-.633.073.941.941,0,0,1-.176-.021.044.044,0,0,1-.042-.039l0-.044a3.169,3.169,0,0,1-.005-.568.265.265,0,0,0,.014-.125l.008-.063a.114.114,0,0,0,.013-.084.827.827,0,0,1,.053-.278,1.227,1.227,0,0,1,.033-.119.02.02,0,0,0,.006-.026l0-.035Z"/>
    <path id="Path_392" data-name="Path 392" d="M630.221,244.79a1.88,1.88,0,0,1-.375-.006A1.151,1.151,0,0,1,630.221,244.79Z"/>
    <path id="Path_393" data-name="Path 393" d="M636.935,259.96a3.178,3.178,0,0,1,.338,0A.771.771,0,0,1,636.935,259.96Z"/>
    <path id="Path_394" data-name="Path 394" d="M633.569,245.656a.334.334,0,0,1-.241,0A1.386,1.386,0,0,0,633.569,245.656Z"/>
    <path id="Path_395" data-name="Path 395" d="M637.526,240.5v-.21A.283.283,0,0,1,637.526,240.5Z"/>
    <path id="Path_396" data-name="Path 396" d="M633.348,243.936a.265.265,0,0,1-.014.125A.17.17,0,0,1,633.348,243.936Z"/>
    <path id="Path_397" data-name="Path 397" d="M637.42,244.749a.2.2,0,0,1-.151-.015A.7.7,0,0,1,637.42,244.749Z"/>
    <path id="Path_398" data-name="Path 398" d="M630.345,260a.232.232,0,0,1,.149-.018A.36.36,0,0,1,630.345,260Z"/>
    <path id="Path_399" data-name="Path 399" d="M624.975,249.661a.171.171,0,0,1-.021.106A.157.157,0,0,1,624.975,249.661Z"/>
    <path id="Path_400" data-name="Path 400" d="M624.954,249.807a.225.225,0,0,1-.013.106A.132.132,0,0,1,624.954,249.807Z"/>
    <path id="Path_401" data-name="Path 401" d="M624.928,250.035a.193.193,0,0,1-.006.086C624.915,250.091,624.9,250.061,624.928,250.035Z"/>
    <path id="Path_402" data-name="Path 402" d="M637.515,240.142a.169.169,0,0,1-.011-.089C637.53,240.08,637.52,240.111,637.515,240.142Z"/>
    <path id="Path_403" data-name="Path 403" d="M633.369,243.789a.114.114,0,0,1-.013.084C633.341,243.842,633.367,243.817,633.369,243.789Z"/>
    <path id="Path_404" data-name="Path 404" d="M637.186,244.731l-.1,0A.077.077,0,0,1,637.186,244.731Z"/>
    <path id="Path_405" data-name="Path 405" d="M624.905,251.131a.207.207,0,0,1,0,.1A.1.1,0,0,1,624.905,251.131Z"/>
    <path id="Path_406" data-name="Path 406" d="M637.484,240.918a.112.112,0,0,1,.008-.065A.056.056,0,0,1,637.484,240.918Z"/>
    <path id="Path_407" data-name="Path 407" d="M638.973,250.166l.006-.063A.043.043,0,0,1,638.973,250.166Z"/>
    <path id="Path_408" data-name="Path 408" d="M639.006,251.212a.028.028,0,0,1,0-.04Z"/>
    <path id="Path_409" data-name="Path 409" d="M624.941,251.716a.1.1,0,0,1,.009.065A.056.056,0,0,1,624.941,251.716Z"/>
    <path id="Path_410" data-name="Path 410" d="M631.058,259.869a.156.156,0,0,1,.085-.016A.1.1,0,0,1,631.058,259.869Z"/>
    <path id="Path_411" data-name="Path 411" d="M637.506,240.73a.137.137,0,0,1,.006-.067C637.516,240.686,637.525,240.709,637.506,240.73Z"/>
    <path id="Path_412" data-name="Path 412" d="M633.339,244.629l0,.044C633.323,244.66,633.33,244.645,633.339,244.629Z"/>
    <path id="Path_413" data-name="Path 413" d="M638.984,250.964a.036.036,0,0,1,0-.044A.052.052,0,0,1,638.984,250.964Z"/>
    <path id="Path_414" data-name="Path 414" d="M639,251.087a.073.073,0,0,1-.014-.061Z"/>
    <path id="Path_415" data-name="Path 415" d="M624.966,251.906l0,.044C624.95,251.937,624.956,251.922,624.966,251.906Z"/>
    <path id="Path_416" data-name="Path 416" d="M637.693,244.768l-.067,0A.062.062,0,0,1,637.693,244.768Z"/>
    <path id="Path_417" data-name="Path 417" d="M625.019,249.349a.074.074,0,0,1-.017.062Z"/>
    <path id="Path_418" data-name="Path 418" d="M636.644,244.765H636.6A.044.044,0,0,1,636.644,244.765Z"/>
    <path id="Path_419" data-name="Path 419" d="M624.924,251.507a.014.014,0,0,1,0,.02Z"/>
    <path id="Path_420" data-name="Path 420" d="M625.089,252.7l0,.014,0,.006Z"/>
    <path id="Path_421" data-name="Path 421" d="M633.472,243.3l-.013.026Z"/>
    <path id="Path_422" data-name="Path 422" d="M633.461,243.366a.02.02,0,0,1-.006.026Z"/>
    <path id="Path_423" data-name="Path 423" d="M625,249.469a.021.021,0,0,1,0,.026Z"/>
    <path id="Path_424" data-name="Path 424" d="M624.909,250.56l-.013.023Z"/>
    <path id="Path_425" data-name="Path 425" d="M638.986,250.88l-.013-.027Z"/>
    <path id="Path_426" data-name="Path 426" d="M625.085,252.762l.014.025Z"/>
  </g>
</svg>
