<svg xmlns="http://www.w3.org/2000/svg" width="38" height="38" viewBox="0 0 38 38">
  <g id="Group_540" data-name="Group 540" transform="translate(-675 -309)">
    <circle id="Ellipse_4" data-name="Ellipse 4" cx="19" cy="19" r="19" transform="translate(675 309)" fill="#fff"/>
    <path id="Icon_awesome-check-circle" data-name="Icon awesome-check-circle" d="M34.563,17.563a17,17,0,1,1-17-17A17,17,0,0,1,34.563,17.563Zm-18.966,9L28.209,13.951a1.1,1.1,0,0,0,0-1.551l-1.551-1.551a1.1,1.1,0,0,0-1.551,0L14.821,21.135l-4.8-4.8a1.1,1.1,0,0,0-1.551,0L6.916,17.884a1.1,1.1,0,0,0,0,1.551l7.129,7.129a1.1,1.1,0,0,0,1.551,0Z" transform="translate(676.438 310.438)" fill="#007ab6"/>
  </g>
</svg>
