<svg xmlns="http://www.w3.org/2000/svg" width="22.61" height="15.263" viewBox="0 0 22.61 15.263">
  <path id="Icon_zocial-email" data-name="Icon zocial-email" d="M.072,17.979V5.42q0-.022.065-.414l7.391,6.323L.159,18.415a1.848,1.848,0,0,1-.087-.436ZM1.053,4.133a.94.94,0,0,1,.371-.065H21.331a1.235,1.235,0,0,1,.392.065L14.31,10.478l-.981.785-1.941,1.592L9.448,11.263l-.981-.785Zm.022,15.132,7.435-7.13,2.878,2.333,2.878-2.333,7.435,7.13a1.047,1.047,0,0,1-.371.065H1.424a.988.988,0,0,1-.349-.065Zm14.172-7.937,7.37-6.323a1.3,1.3,0,0,1,.065.414V17.979a1.671,1.671,0,0,1-.065.436Z" transform="translate(-0.072 -4.068)" fill="#191919" opacity="0.5"/>
</svg>
