<svg xmlns="http://www.w3.org/2000/svg" width="9.393" height="20" viewBox="0 0 9.393 20">
  <path id="Path_355" data-name="Path 355" d="M542.931,241.356c-.014.684-.013,1.369,0,2.053l0,.034a.047.047,0,0,0-.013.025c-.609,0-1.219,0-1.828,0a1.928,1.928,0,0,0-.586.078,1.873,1.873,0,0,0-1.369,1.439,1.709,1.709,0,0,0-.042.428c0,.427,0,.854,0,1.28,0,.444,0,.444.455.392a1.393,1.393,0,0,0,.387,0c.478,0,.957.01,1.435.01.356,0,.712-.006,1.068-.01a.3.3,0,0,0,.162,0l.322.014.006.038-.055.444-.008.07c-.06.394-.115.788-.145,1.185l-.016.1c-.043.307-.094.613-.123.921-.012.132-.067.15-.18.15-1.043,0-2.086,0-3.128-.007-.152,0-.183.045-.183.188q.008,4.812.009,9.625c0,.15-.046.187-.189.186-.957-.006-1.915-.009-2.872,0-.171,0-.246-.042-.236-.212,0-.059.012-.117.012-.175q0-4.652,0-9.3c0-.064-.008-.128-.012-.191.042-.1-.018-.118-.1-.117q-.32,0-.639,0l-1.518-.011q0-1.341,0-2.681c0-.231-.045-.216.21-.217.631,0,1.263,0,1.894,0,.137,0,.168-.042.168-.172,0-.931-.017-1.863.011-2.793a4.365,4.365,0,0,1,.849-2.547,3.845,3.845,0,0,1,2.558-1.483,10.938,10.938,0,0,1,2.688-.042c.074.006.149.007.224.009a.041.041,0,0,0,.057.006l.077.013a1.308,1.308,0,0,0,.318.035l.065.005a.313.313,0,0,0,.092.021c.144-.007.177.063.171.2-.009.2,0,.394.007.592v.094A1.164,1.164,0,0,0,542.931,241.356Z" transform="translate(-533.539 -240)" fill="#3c72d5"/>
</svg>
