<svg xmlns="http://www.w3.org/2000/svg" width="79" height="79" viewBox="0 0 79 79">
  <g id="Group_562" data-name="Group 562" transform="translate(0.502 0.449)">
    <path id="Union_1" data-name="Union 1" d="M38.986,78a38.989,38.989,0,1,1,.023,0Z" transform="translate(-0.002 0.051)" fill="#3b5998" stroke="rgba(0,0,0,0)" stroke-width="1"/>
    <g id="Group_557" data-name="Group 557" transform="translate(27.714 15.677)">
      <path id="Path_334" data-name="Path 334" d="M1287.792,161.222c0-3.377-.009-6.755.01-10.134,0-.461-.127-.584-.58-.579-2.056.024-4.113,0-6.167.018-.37,0-.507-.076-.5-.479q.027-3.717,0-7.435c0-.4.14-.478.5-.476,2.056.016,4.113-.007,6.167.018.469.005.584-.142.58-.592-.02-2.018-.009-4.038,0-6.058a11.813,11.813,0,0,1,.984-4.815,9.292,9.292,0,0,1,7.679-5.6,33.286,33.286,0,0,1,7.194.054c.055.005.11.014.165.02,1.172.118,1.172.118,1.172,1.318,0,1.083.013,2.166,0,3.249a24.516,24.516,0,0,1-.055,2.906,21.022,21.022,0,0,1-2.9.076c-.769.03-1.54.043-2.311.069a3.105,3.105,0,0,0-.491.048,2.949,2.949,0,0,0-2.779,3.2c-.086,1.924-.022,3.855-.041,5.782,0,.389.235.336.47.336,2.405,0,4.81.013,7.214-.012.494-.005.6.089.524.6-.344,2.413-.64,4.834-.928,7.255-.051.422-.2.541-.619.536-2.018-.021-4.038.007-6.058-.021-.47-.005-.613.1-.611.6.02,6.719,0,13.439.029,20.158,0,.576-.162.687-.7.681-2.477-.029-4.955-.022-7.433,0-.416,0-.525-.119-.523-.528C1287.8,168.016,1287.792,164.619,1287.792,161.222Z" transform="translate(-1280.551 -124.913)" fill="#fff"/>
    </g>
  </g>
</svg>
