<svg xmlns="http://www.w3.org/2000/svg" width="19.6" height="20" viewBox="0 0 19.6 20">
  <g id="Group_253" data-name="Group 253" transform="translate(-560.833 -240)">
    <path id="Path_356" data-name="Path 356" d="M563.962,242.753a.028.028,0,0,1,.02-.013.032.032,0,0,0,.032-.032h0l.03-.032.006.005-.006-.005a1.612,1.612,0,0,0,.485-.419h0c.119,0,.172-.08.217-.173l.05-.039a.178.178,0,0,0,.124-.045,8.593,8.593,0,0,1,1.2-.761c.194-.1.389-.2.587-.293a3.092,3.092,0,0,0,.6-.292l.036-.015a.625.625,0,0,0,.177-.024c.256-.084.512-.166.77-.245a2.59,2.59,0,0,0,.584-.164l.058-.014c.046.035.1.014.144.008a9.807,9.807,0,0,1,1.325-.14,12.14,12.14,0,0,1,1.56.053,10.288,10.288,0,0,1,1.089.177c.227.057.45.129.675.183a8.616,8.616,0,0,1,1.247.46,1.664,1.664,0,0,0,.455.188l.006,0a.376.376,0,0,0,.289.161l.043.022a1.324,1.324,0,0,0,.443.306c.117.061.182.206.336.2l0,0a.292.292,0,0,0,.045.075q.363.3.731.589c.122.1.132.155.022.268-.182.188-.363.378-.557.554s-.379.377-.569.566a3.144,3.144,0,0,0-.258.24c-.194.247-.448.432-.648.67-.148.176-.362.291-.467.506l0,0a.193.193,0,0,1-.275-.043.975.975,0,0,0-.161-.133c-.132-.085-.226-.231-.4-.251a.029.029,0,0,1-.018-.012.051.051,0,0,0-.069-.047l.007-.007-.007.007c-.014-.07-.076-.09-.126-.121a4.879,4.879,0,0,0-.952-.458,5.89,5.89,0,0,0-2.172-.337,6.226,6.226,0,0,0-1.445.218,6.029,6.029,0,0,0-1.845.9,6.887,6.887,0,0,0-1.076.992.749.749,0,0,0-.225.341l0,0a.092.092,0,0,0-.074.045,7.211,7.211,0,0,0-.469.748c-.155.28-.237.593-.4.869a8.962,8.962,0,0,1-.766-.577q-1.215-.943-2.432-1.884a2.209,2.209,0,0,1,.216-.4.49.49,0,0,0,.112-.268.027.027,0,0,1,.01-.018c.017-.009.04-.014.05-.028q.308-.441.611-.884c.052-.077.144-.129.147-.237h0c.16-.04.188-.194.262-.308l.009.006-.008-.007a.175.175,0,0,0,.136-.156.029.029,0,0,1,.019-.017l.033-.033a.032.032,0,0,1,.014-.02c.09-.018.156-.06.159-.163h0C563.822,242.95,563.931,242.891,563.962,242.753Z" fill="#e13e2c"/>
    <path id="Path_357" data-name="Path 357" d="M565.171,251.957a8.852,8.852,0,0,0,.445.984A5.872,5.872,0,0,0,569.858,256a6.04,6.04,0,0,0,4.335-.826c.038-.024.079-.044.118-.067a1.138,1.138,0,0,0,.289.256c.5.391,1,.777,1.505,1.165l1.35,1.044a6.776,6.776,0,0,1-1.206.942,9.528,9.528,0,0,1-4.208,1.421,10.356,10.356,0,0,1-3.6-.227,10.016,10.016,0,0,1-6.478-5.1.275.275,0,0,1-.055-.137,5.959,5.959,0,0,0,.585-.44Q563.836,253,565.171,251.957Z" fill="#2da14c"/>
    <path id="Path_358" data-name="Path 358" d="M577.455,257.574l-1.35-1.044c-.5-.388-1.006-.774-1.505-1.165a1.138,1.138,0,0,1-.289-.256,5.2,5.2,0,0,0,1.18-1.171,4.819,4.819,0,0,0,.763-1.754c.031-.139-.013-.159-.136-.159q-2.545,0-5.089,0c-.2,0-.2,0-.2-.192,0-1.184,0-2.368,0-3.552,0-.133.044-.154.163-.154q4.524,0,9.048,0c.17,0,.217.054.242.209a12.138,12.138,0,0,1,.084,3.18,10.253,10.253,0,0,1-1,3.512,8.73,8.73,0,0,1-1.808,2.462C577.527,257.521,577.49,257.546,577.455,257.574Z" fill="#3a7cea"/>
    <path id="Path_359" data-name="Path 359" d="M565.171,251.957q-1.338,1.038-2.677,2.075a5.959,5.959,0,0,1-.585.44,4.453,4.453,0,0,1-.414-.9,9.962,9.962,0,0,1,.323-7.889v0l.039-.071.025-.046.016-.027.04,0q1.215.942,2.432,1.884a9.113,9.113,0,0,0,.765.577l.039.052-.035.124h0l-.059.189a2.6,2.6,0,0,0-.1.426l-.022.089-.028.146-.011.134a1,1,0,0,0-.048.321l-.01.276v.487l.009.251a1.035,1.035,0,0,0,.034.266l.015.116a.792.792,0,0,0,.043.278Z" fill="#f0b402"/>
    <path id="Path_360" data-name="Path 360" d="M566.08,246.336a.749.749,0,0,1,.225-.341,6.887,6.887,0,0,1,1.076-.992,6.029,6.029,0,0,1,1.845-.9,6.226,6.226,0,0,1,1.445-.218,5.89,5.89,0,0,1,2.172.337,4.879,4.879,0,0,1,.952.458c.05.031.112.051.126.121a7.738,7.738,0,0,0-1.008-.5,5.778,5.778,0,0,0-4.436.131,5.847,5.847,0,0,0-2.264,1.764C566.173,246.246,566.124,246.29,566.08,246.336Z" fill="#d36f62"/>
    <path id="Path_361" data-name="Path 361" d="M575.425,241.122a1.664,1.664,0,0,1-.455-.188,8.616,8.616,0,0,0-1.247-.46c-.225-.054-.448-.126-.675-.183a10.288,10.288,0,0,0-1.089-.177,12.14,12.14,0,0,0-1.56-.053,9.807,9.807,0,0,0-1.325.14c-.049.006-.1.027-.144-.008a7.46,7.46,0,0,1,1.547-.186,9.98,9.98,0,0,1,3.652.533A6.052,6.052,0,0,1,575.425,241.122Z" fill="#d36f62"/>
    <path id="Path_362" data-name="Path 362" d="M574.844,245.284c.1-.215.319-.33.467-.506.2-.238.454-.423.648-.67a3.144,3.144,0,0,1,.258-.24c.19-.189.372-.385.569-.566s.375-.366.557-.554c.11-.113.1-.171-.022-.268q-.367-.292-.731-.589a.292.292,0,0,1-.045-.075,6.449,6.449,0,0,1,.933.747c.066.06.008.1-.029.133-.27.275-.539.55-.811.822q-.837.838-1.678,1.674A.307.307,0,0,1,574.844,245.284Z" fill="#d36f62"/>
    <path id="Path_363" data-name="Path 363" d="M567.3,240.655a3.092,3.092,0,0,1-.6.292c-.2.094-.393.191-.587.293a8.593,8.593,0,0,0-1.2.761.178.178,0,0,1-.124.045,5.076,5.076,0,0,1,.791-.56,9.563,9.563,0,0,1,1.633-.813A.485.485,0,0,1,567.3,240.655Z" fill="#d36f62"/>
    <path id="Path_364" data-name="Path 364" d="M565.173,248.052l-.039-.052c.164-.276.246-.589.4-.869a7.211,7.211,0,0,1,.469-.748.092.092,0,0,1,.074-.045c-.145.233-.3.461-.433.7a5.656,5.656,0,0,0-.4.87C565.227,247.957,565.223,248.017,565.173,248.052Z" fill="#d36f62"/>
    <path id="Path_365" data-name="Path 365" d="M568.872,240.207a2.59,2.59,0,0,1-.584.164c-.258.079-.514.161-.77.245a.625.625,0,0,1-.177.024A6.359,6.359,0,0,1,568.872,240.207Z" fill="#d36f62"/>
    <path id="Path_366" data-name="Path 366" d="M563.083,243.7c0,.108-.1.16-.147.237q-.3.442-.611.884c-.01.014-.033.019-.05.028A5.706,5.706,0,0,1,563.083,243.7Z" fill="#d36f62"/>
    <path id="Path_367" data-name="Path 367" d="M574.008,244.859c.172.02.266.166.4.251a.975.975,0,0,1,.161.133.193.193,0,0,0,.275.043c-.116.175-.118.173-.272.041C574.385,245.168,574.2,245.014,574.008,244.859Z" fill="#d36f62"/>
    <path id="Path_368" data-name="Path 368" d="M576.542,241.814c-.154.006-.219-.139-.336-.2a1.324,1.324,0,0,1-.443-.306A3.772,3.772,0,0,1,576.542,241.814Z" fill="#d36f62"/>
    <path id="Path_369" data-name="Path 369" d="M561.937,245.539l-.04,0a2.616,2.616,0,0,1,.368-.672.49.49,0,0,1-.112.268A2.209,2.209,0,0,0,561.937,245.539Z" fill="#d36f62"/>
    <path id="Path_370" data-name="Path 370" d="M564.529,242.258a1.612,1.612,0,0,1-.485.419A2.068,2.068,0,0,1,564.529,242.258Z" fill="#d36f62"/>
    <path id="Path_371" data-name="Path 371" d="M563.345,243.4c-.074.114-.1.268-.262.308A.916.916,0,0,1,563.345,243.4Z" fill="#d36f62"/>
    <path id="Path_372" data-name="Path 372" d="M563.962,242.753c-.031.138-.14.2-.253.252A.7.7,0,0,1,563.962,242.753Z" fill="#d36f62"/>
    <path id="Path_373" data-name="Path 373" d="M564.981,248.791a2.6,2.6,0,0,1,.1-.426A1.226,1.226,0,0,1,564.981,248.791Z" fill="#d36f62"/>
    <path id="Path_374" data-name="Path 374" d="M575.72,241.286a.376.376,0,0,1-.289-.161A.718.718,0,0,1,575.72,241.286Z" fill="#d36f62"/>
    <path id="Path_375" data-name="Path 375" d="M564.745,242.085c-.045.093-.1.174-.217.173A.492.492,0,0,1,564.745,242.085Z" fill="#d36f62"/>
    <path id="Path_376" data-name="Path 376" d="M564.872,249.481a1,1,0,0,1,.048-.321A.677.677,0,0,1,564.872,249.481Z" fill="#d36f62"/>
    <path id="Path_377" data-name="Path 377" d="M564.863,250.244v-.487A2.556,2.556,0,0,1,564.863,250.244Z" fill="#d36f62"/>
    <path id="Path_378" data-name="Path 378" d="M564.906,250.761a1.035,1.035,0,0,1-.034-.266A.443.443,0,0,1,564.906,250.761Z" fill="#d36f62"/>
    <path id="Path_379" data-name="Path 379" d="M563.707,243.006c0,.1-.069.145-.159.163A.422.422,0,0,1,563.707,243.006Z" fill="#d36f62"/>
    <path id="Path_380" data-name="Path 380" d="M564.964,251.155a.792.792,0,0,1-.043-.278A.59.59,0,0,1,564.964,251.155Z" fill="#d36f62"/>
    <path id="Path_381" data-name="Path 381" d="M563.482,243.239a.175.175,0,0,1-.136.156A.314.314,0,0,1,563.482,243.239Z" fill="#d36f62"/>
    <path id="Path_382" data-name="Path 382" d="M564.931,249.026l.028-.146C564.968,248.933,564.982,248.986,564.931,249.026Z" fill="#d36f62"/>
    <path id="Path_383" data-name="Path 383" d="M561.881,245.57l-.025.046C561.839,245.587,561.835,245.565,561.881,245.57Z" fill="#d36f62"/>
    <path id="Path_384" data-name="Path 384" d="M573.921,244.8a.051.051,0,0,1,.069.047A.075.075,0,0,1,573.921,244.8Z" fill="#d36f62"/>
    <path id="Path_385" data-name="Path 385" d="M564.044,242.677l-.03.032Z" fill="#d36f62"/>
    <path id="Path_386" data-name="Path 386" d="M564.014,242.708a.032.032,0,0,1-.032.032Z" fill="#d36f62"/>
    <path id="Path_387" data-name="Path 387" d="M563.534,243.189l-.033.033Z" fill="#d36f62"/>
    <path id="Path_388" data-name="Path 388" d="M561.817,245.687v0Z" fill="#d36f62"/>
    <path id="Path_389" data-name="Path 389" d="M565.138,248.176Z" fill="#d36f62"/>
  </g>
</svg>
