<svg xmlns="http://www.w3.org/2000/svg" width="79" height="79" viewBox="0 0 79 79">
  <g id="Group_561" data-name="Group 561" transform="translate(0.505 0.449)">
    <path id="Union_2" data-name="Union 2" d="M38.986,78a38.989,38.989,0,1,1,.023,0Z" transform="translate(-0.005 0.051)" fill="#c32aa3" stroke="rgba(0,0,0,0)" stroke-width="1"/>
    <g id="Group_558" data-name="Group 558" transform="translate(15.773 15.677)">
      <path id="Path_337" data-name="Path 337" d="M1651.086,164.467c0-3.249-.048-6.5.009-9.75a14.019,14.019,0,0,1,12.269-13.612,10.958,10.958,0,0,1,1.371-.1c6.539-.008,13.077-.068,19.615.009a13.968,13.968,0,0,1,13.613,12.259,15.626,15.626,0,0,1,.117,1.866c.008,6.224.029,12.449,0,18.674a13.96,13.96,0,0,1-10.186,13.609,12.933,12.933,0,0,1-3.41.529c-6.574.05-13.15.09-19.724.008A13.966,13.966,0,0,1,1651.2,175.7a18.077,18.077,0,0,1-.119-2.141c-.013-3.03-.005-6.059-.005-9.09Zm42.315.044c0-3.03.006-6.06-.007-9.09a10.866,10.866,0,0,0-.136-1.864,9.37,9.37,0,0,0-9.407-7.886q-9.284-.023-18.569,0a9.472,9.472,0,0,0-9.517,9.554q-.024,9.255,0,18.511a9.5,9.5,0,0,0,.141,1.7,9.377,9.377,0,0,0,9.429,7.861q9.257.02,18.515,0a9.5,9.5,0,0,0,9.546-9.528C1693.416,170.681,1693.4,167.6,1693.4,164.511Z" transform="translate(-1651.067 -140.971)" fill="#fff"/>
      <path id="Path_338" data-name="Path 338" d="M1683.579,162.081a11.76,11.76,0,1,1-11.374-12.1A11.778,11.778,0,0,1,1683.579,162.081Zm-18.807-.378a7.053,7.053,0,1,0,7.063-7.027A7.064,7.064,0,0,0,1664.772,161.7Z" transform="translate(-1648.312 -138.216)" fill="#fff"/>
      <path id="Path_339" data-name="Path 339" d="M1678.62,148.173a2.353,2.353,0,0,1,.022,4.706,2.353,2.353,0,1,1-.022-4.706Z" transform="translate(-1643.347 -138.765)" fill="#fff"/>
    </g>
  </g>
</svg>
