<svg xmlns="http://www.w3.org/2000/svg" width="129.687" height="124.226" viewBox="0 0 129.687 124.226">
  <g id="Group_246" data-name="Group 246" transform="translate(-42.743 -51.471)">
    <g id="Group_244" data-name="Group 244" transform="translate(42.743 151.48)">
      <rect id="Rectangle_527" data-name="Rectangle 527" width="7.309" height="0.821" transform="translate(122.378 21.347)" fill="#fff"/>
      <g id="Group_242" data-name="Group 242">
        <path id="Path_315" data-name="Path 315" d="M44.752,375.157a5.489,5.489,0,0,0-.107-1.3,1.411,1.411,0,0,0-.384-.657,1.788,1.788,0,0,0-.916-.389.038.038,0,0,1-.028-.009H43.3q-.556-.092-.556-.417a.37.37,0,0,1,.12-.291.485.485,0,0,1,.333-.106q.037,0,.824.079t1.527.079q.851,0,2.013-.1t1.476-.1a5.04,5.04,0,0,1,3.309,1,3.325,3.325,0,0,1,1.208,2.7,3.645,3.645,0,0,1-1.125,2.735,3.891,3.891,0,0,1-2.819,1.088,4.213,4.213,0,0,1-1.439-.2q-.533-.2-.532-.541a.249.249,0,0,1,.079-.181.272.272,0,0,1,.2-.079c.012,0,.11.016.292.046a3.276,3.276,0,0,0,.551.046,2.368,2.368,0,0,0,1.8-.638,2.661,2.661,0,0,0,.606-1.9,3.418,3.418,0,0,0-.792-2.361,2.693,2.693,0,0,0-2.115-.889,1.1,1.1,0,0,0-.958.361,4.16,4.16,0,0,0-.255,1.9v7.489a2.972,2.972,0,0,0,.209,1.217,1.38,1.38,0,0,0,.643.68,1.686,1.686,0,0,0,.185.069c.068.022.17.048.305.079l.028.009q.546.13.546.445a.4.4,0,0,1-.111.319.543.543,0,0,1-.361.1q-.055,0-.824-.083a13.808,13.808,0,0,0-1.49-.083q-.741,0-1.611.083t-.991.083a.554.554,0,0,1-.333-.088.288.288,0,0,1-.12-.246.448.448,0,0,1,.092-.3,1.284,1.284,0,0,1,.426-.259c.03-.018.086-.048.166-.088s.142-.072.185-.1a1.445,1.445,0,0,0,.578-.685,2.894,2.894,0,0,0,.181-1.1Z" transform="translate(-42.743 -371.695)" fill="#fff"/>
        <path id="Path_316" data-name="Path 316" d="M77.231,382.132l4.777-10.747v-.009q.111-.25.3-.25a.29.29,0,0,1,.2.093.729.729,0,0,1,.162.241l4.841,11.3a2.681,2.681,0,0,0,.486.81,1.637,1.637,0,0,0,.643.4,2.232,2.232,0,0,0,.222.065.3.3,0,0,0,.046.009l.009.009q.426.13.426.445a.48.48,0,0,1-.06.292q-.06.069-.283.069-.148,0-1.041-.083T86.33,384.7a15,15,0,0,0-2.138.157c-.148.019-.238.028-.268.028a.267.267,0,0,1-.218-.111.447.447,0,0,1-.088-.287q0-.184.425-.4l.055-.028a1.558,1.558,0,0,0,.695-.439.981.981,0,0,0,.185-.606,1.973,1.973,0,0,0-.046-.412,2.056,2.056,0,0,0-.139-.421l-.537-1.277a1.523,1.523,0,0,0-.421-.657,1.659,1.659,0,0,0-.884-.158H80.276a2.134,2.134,0,0,0-1.055.167,1.318,1.318,0,0,0-.417.648l-.518,1.444a3.244,3.244,0,0,0-.111.361,1.256,1.256,0,0,0-.037.287.844.844,0,0,0,.319.68,2.221,2.221,0,0,0,.986.393.061.061,0,0,0,.028.014.3.3,0,0,0,.065,0,1.6,1.6,0,0,1,.546.171.287.287,0,0,1,.12.246.379.379,0,0,1-.111.3.479.479,0,0,1-.324.1q-.093,0-.916-.093a13.766,13.766,0,0,0-1.527-.092,7.205,7.205,0,0,0-1.092.083l-.556.083a.445.445,0,0,1-.31-.1.363.363,0,0,1-.106-.282q0-.259.416-.426a2.046,2.046,0,0,0,.38-.176,2.071,2.071,0,0,0,.551-.56A8.229,8.229,0,0,0,77.231,382.132Zm3.37-2.989h2.185a1.2,1.2,0,0,0,.448-.065c.1-.043.153-.105.153-.185a1,1,0,0,0-.046-.217,3.659,3.659,0,0,0-.12-.347l-1.352-3.212a.989.989,0,0,0-.139-.259.2.2,0,0,0-.139-.093.221.221,0,0,0-.157.074.65.65,0,0,0-.129.2l-1.426,3.341a2.448,2.448,0,0,0-.092.273.808.808,0,0,0-.037.2.225.225,0,0,0,.166.227A2.457,2.457,0,0,0,80.6,379.143Z" transform="translate(-65.086 -371.126)" fill="#fff"/>
        <path id="Path_317" data-name="Path 317" d="M123.1,380.413v-4.758a6.36,6.36,0,0,0-.139-1.476,1.8,1.8,0,0,0-.436-.856,1.557,1.557,0,0,0-.439-.315,1.744,1.744,0,0,0-.606-.139h-.009q-.444-.064-.445-.379a.451.451,0,0,1,.083-.31.4.4,0,0,1,.3-.088c.062,0,.128,0,.2.01l.31.028c.148.031.27.053.366.065a2.038,2.038,0,0,0,.264.019q.167,0,.361-.019t.5-.065l.481-.028c.111-.007.206-.01.287-.01a1.606,1.606,0,0,1,1.111.722l.065.074,6.526,7.831a3.245,3.245,0,0,0,.444.463.594.594,0,0,0,.315.167c.093,0,.159-.073.2-.217a2.894,2.894,0,0,0,.06-.7V375.6a5.614,5.614,0,0,0-.166-1.6,1.405,1.405,0,0,0-.565-.769,3.1,3.1,0,0,0-1.051-.393q-.625-.125-.625-.4a.311.311,0,0,1,.107-.254.476.476,0,0,1,.31-.088c.105,0,.214,0,.329.014a3.483,3.483,0,0,1,.366.051c.166.019.345.032.537.042s.395.014.611.014.457-.006.7-.019.54-.034.879-.065q.222-.028.416-.042c.13-.009.247-.014.352-.014a.432.432,0,0,1,.3.079.352.352,0,0,1,.083.264q0,.269-.389.412a2.127,2.127,0,0,0-.574.291,1.407,1.407,0,0,0-.491.676,5.65,5.65,0,0,0-.157,1.5l-.111,9.618a2.2,2.2,0,0,1-.06.6q-.061.195-.19.195-.315,0-.889-.685c-.074-.092-.133-.163-.176-.213l-7.785-9.2a1.714,1.714,0,0,0-.268-.264.436.436,0,0,0-.195-.106c-.074,0-.129.067-.166.2a2.391,2.391,0,0,0-.055.6v4.425a17.937,17.937,0,0,0,.139,2.787,2.073,2.073,0,0,0,.482,1.073,1.812,1.812,0,0,0,.963.379h.019a1.462,1.462,0,0,1,.574.166.336.336,0,0,1,.139.287.429.429,0,0,1-.088.319.691.691,0,0,1-.412.079q-.055,0-.722-.093a9.229,9.229,0,0,0-1.268-.092,11.744,11.744,0,0,0-1.356.083q-.718.083-.782.083a.325.325,0,0,1-.269-.116.532.532,0,0,1-.092-.338q0-.222.435-.352l.019-.009a.246.246,0,0,0,.055-.019,1.55,1.55,0,0,0,.722-.435,2.9,2.9,0,0,0,.426-1.328A17.728,17.728,0,0,0,123.1,380.413Z" transform="translate(-96.537 -371.777)" fill="#fff"/>
        <path id="Path_318" data-name="Path 318" d="M170.47,378.453a6.8,6.8,0,0,1,2.069-5.064,7.151,7.151,0,0,1,5.216-2.027,6.706,6.706,0,0,1,4.929,1.935,6.556,6.556,0,0,1,1.949,4.851,6.852,6.852,0,0,1-2.065,5.1,7.2,7.2,0,0,1-5.267,2.027,6.617,6.617,0,0,1-6.831-6.822Zm2.425-.879a8.266,8.266,0,0,0,1.352,4.93,4.171,4.171,0,0,0,3.545,1.884,4.058,4.058,0,0,0,3.24-1.384,5.61,5.61,0,0,0,1.194-3.791,8.454,8.454,0,0,0-1.383-5.017,4.187,4.187,0,0,0-3.541-1.944,3.977,3.977,0,0,0-3.24,1.408A5.961,5.961,0,0,0,172.9,377.573Z" transform="translate(-130.509 -371.288)" fill="#fff"/>
        <path id="Path_319" data-name="Path 319" d="M219.819,375.157a5.488,5.488,0,0,0-.107-1.3,1.408,1.408,0,0,0-.384-.657,1.788,1.788,0,0,0-.916-.389.037.037,0,0,1-.028-.009h-.018q-.555-.092-.555-.417a.37.37,0,0,1,.12-.291.486.486,0,0,1,.333-.106q.037,0,.824.079t1.527.079q.851,0,2.013-.1t1.477-.1a5.041,5.041,0,0,1,3.309,1,3.325,3.325,0,0,1,1.208,2.7,3.647,3.647,0,0,1-1.125,2.735,3.892,3.892,0,0,1-2.819,1.088,4.213,4.213,0,0,1-1.44-.2q-.532-.2-.532-.541a.249.249,0,0,1,.079-.181.272.272,0,0,1,.2-.079c.012,0,.11.016.292.046a3.279,3.279,0,0,0,.551.046,2.368,2.368,0,0,0,1.8-.638,2.662,2.662,0,0,0,.606-1.9,3.419,3.419,0,0,0-.791-2.361,2.694,2.694,0,0,0-2.115-.889,1.1,1.1,0,0,0-.958.361,4.159,4.159,0,0,0-.255,1.9v7.489a2.978,2.978,0,0,0,.208,1.217,1.381,1.381,0,0,0,.644.68,1.678,1.678,0,0,0,.185.069c.068.022.17.048.306.079l.028.009q.546.13.546.445a.4.4,0,0,1-.111.319.543.543,0,0,1-.361.1q-.056,0-.824-.083a13.8,13.8,0,0,0-1.49-.083q-.741,0-1.611.083t-.991.083a.556.556,0,0,1-.333-.088.288.288,0,0,1-.12-.246.448.448,0,0,1,.092-.3,1.281,1.281,0,0,1,.426-.259c.031-.018.086-.048.166-.088s.142-.072.185-.1a1.446,1.446,0,0,0,.578-.685,2.9,2.9,0,0,0,.181-1.1Z" transform="translate(-163.038 -371.695)" fill="#fff"/>
        <path id="Path_320" data-name="Path 320" d="M259.824,374.082q0-.583-.2-.726a2.261,2.261,0,0,0-1.051-.144,6.247,6.247,0,0,0-2.009.222,1.436,1.436,0,0,0-.824.787,5.844,5.844,0,0,0-.324.935q-.167.638-.527.639a.267.267,0,0,1-.232-.1.537.537,0,0,1-.074-.315c.006-.043.025-.163.055-.361q.195-1.13.268-2.157a1.384,1.384,0,0,1,.144-.662.53.53,0,0,1,.412-.125q.12,0,1.171.06t1.958.06h4.489q.945,0,2.05-.051t1.282-.051a.977.977,0,0,1,.583.107.709.709,0,0,1,.139.44l.157,1.944v.166a.773.773,0,0,1-.046.361q-.046.055-.222.055-.333,0-.463-.463a3.506,3.506,0,0,0-.222-.6,1.357,1.357,0,0,0-.773-.681,5.913,5.913,0,0,0-1.8-.19h-.157a2.622,2.622,0,0,0-1.231.162q-.2.162-.2.755v8.47a2.594,2.594,0,0,0,.236,1.222,1.562,1.562,0,0,0,.791.676,3.513,3.513,0,0,0,.537.139.159.159,0,0,0,.047.009l.028.009q.611.139.611.463a.357.357,0,0,1-.125.3.588.588,0,0,1-.366.1q-.129,0-1.032-.083t-1.662-.083q-.787,0-1.814.092t-1.231.093a.649.649,0,0,1-.393-.106.343.343,0,0,1-.144-.292q0-.3.565-.435h.009c.037-.012.117-.035.241-.069a3.182,3.182,0,0,0,.305-.1,1.549,1.549,0,0,0,.792-.676,2.451,2.451,0,0,0,.255-1.2Z" transform="translate(-188.307 -371.777)" fill="#fff"/>
        <path id="Path_321" data-name="Path 321" d="M298.135,375.239a5.246,5.246,0,0,0-.111-1.314,1.417,1.417,0,0,0-.4-.639,1.383,1.383,0,0,0-.4-.25,2.752,2.752,0,0,0-.643-.148h-.019q-.583-.1-.583-.417a.357.357,0,0,1,.13-.291.554.554,0,0,1,.361-.106c.025,0,.111.006.259.018q1.453.139,3.018.139,1.62,0,3.406-.069t1.963-.069q.527,0,.643.121a.851.851,0,0,1,.116.546v.4q0,.676.019,1.416v.194a.5.5,0,0,1-.065.306.312.312,0,0,1-.241.074q-.306,0-.347-.44a2.154,2.154,0,0,0-.143-.662,1.627,1.627,0,0,0-1-.833,7.241,7.241,0,0,0-2.166-.241,2.17,2.17,0,0,0-1.2.241.976.976,0,0,0-.338.851v2.962a.831.831,0,0,0,.19.611.876.876,0,0,0,.625.185h.611a2.855,2.855,0,0,0,1.023-.148,1.5,1.5,0,0,0,.643-.5,2.893,2.893,0,0,0,.287-.537q.24-.546.528-.546a.28.28,0,0,1,.231.093.492.492,0,0,1,.074.305c0,.019-.007.077-.019.176q-.055.629-.055,1.268a19.665,19.665,0,0,0,.12,2.13c.018.185.028.3.028.333a.384.384,0,0,1-.084.273.316.316,0,0,1-.241.088q-.305,0-.38-.5a3.408,3.408,0,0,0-.129-.574,1.394,1.394,0,0,0-.62-.773,2.894,2.894,0,0,0-1.3-.217h-.741a.8.8,0,0,0-.629.2,1.486,1.486,0,0,0-.167.865v2.953a2.274,2.274,0,0,0,.3,1.463,1.831,1.831,0,0,0,1.222.287,5.987,5.987,0,0,0,1.865-.3,4.384,4.384,0,0,0,1.5-.8,3.2,3.2,0,0,0,.713-.843c.2-.339.364-.509.481-.509a.227.227,0,0,1,.194.106.466.466,0,0,1,.074.273,3.328,3.328,0,0,1-.213,1,4.144,4.144,0,0,1-.528,1.074,2.3,2.3,0,0,1-.995.814,3.831,3.831,0,0,1-1.5.259q-.389,0-1.574-.083t-1.972-.083q-.963,0-1.967.083t-1.032.083a.556.556,0,0,1-.333-.088.288.288,0,0,1-.12-.246.448.448,0,0,1,.092-.3,1.281,1.281,0,0,1,.426-.259c.031-.018.086-.048.166-.088s.142-.072.185-.1a1.446,1.446,0,0,0,.578-.685,2.9,2.9,0,0,0,.181-1.1Z" transform="translate(-216.75 -371.777)" fill="#fff"/>
        <path id="Path_322" data-name="Path 322" d="M334.712,383.971l-.611-2.731q-.028-.111-.051-.213a.937.937,0,0,1-.023-.12.545.545,0,0,1,.083-.352.388.388,0,0,1,.3-.092q.213,0,.435.624a7.65,7.65,0,0,0,.509,1.144,4.9,4.9,0,0,0,1.449,1.643,3.037,3.037,0,0,0,1.754.6,2.607,2.607,0,0,0,1.87-.695,2.388,2.388,0,0,0,.731-1.815q0-1.406-2.814-2.62l-.3-.129-.019-.009q-3.73-1.592-3.73-4.045a3.475,3.475,0,0,1,1.06-2.574,3.645,3.645,0,0,1,2.67-1.046,5,5,0,0,1,1.713.324,4.717,4.717,0,0,0,1.129.324,1.065,1.065,0,0,0,.505-.125,1.02,1.02,0,0,1,.291-.125.332.332,0,0,1,.264.092.509.509,0,0,1,.079.324c0,.068-.006.174-.018.319s-.019.261-.019.348a8.762,8.762,0,0,0,.135,1.3,8.79,8.79,0,0,1,.134,1.143.543.543,0,0,1-.065.314.265.265,0,0,1-.222.084q-.287,0-.463-.616a5.112,5.112,0,0,0-.5-1.171,3.643,3.643,0,0,0-1.319-1.268,3.46,3.46,0,0,0-1.736-.472,2.173,2.173,0,0,0-1.509.532,1.712,1.712,0,0,0-.592,1.328,1.757,1.757,0,0,0,.565,1.319,6.55,6.55,0,0,0,2.092,1.125q.167.065.518.194a7.922,7.922,0,0,1,2.453,1.287,3.557,3.557,0,0,1,.847,1.287,4.5,4.5,0,0,1,.292,1.648,4.258,4.258,0,0,1-1.152,3.1,4,4,0,0,1-3,1.185,5.656,5.656,0,0,1-1.726-.315q-.968-.314-1.189-.352c-.025-.006-.057-.013-.1-.019s-.073-.012-.1-.018a.664.664,0,0,1-.6-.6l-.014-.028A.094.094,0,0,1,334.712,383.971Z" transform="translate(-242.894 -371.41)" fill="#fff"/>
        <path id="Path_323" data-name="Path 323" d="M367.272,382.132l4.777-10.747v-.009q.111-.25.3-.25a.29.29,0,0,1,.2.093.724.724,0,0,1,.162.241l4.842,11.3a2.673,2.673,0,0,0,.486.81,1.641,1.641,0,0,0,.644.4,2.2,2.2,0,0,0,.222.065.292.292,0,0,0,.046.009l.009.009q.426.13.426.445a.481.481,0,0,1-.06.292.393.393,0,0,1-.283.069q-.148,0-1.041-.083t-1.625-.083a15,15,0,0,0-2.138.157c-.148.019-.238.028-.268.028a.267.267,0,0,1-.217-.111.446.446,0,0,1-.088-.287q0-.184.426-.4l.055-.028a1.557,1.557,0,0,0,.695-.439.981.981,0,0,0,.185-.606,1.977,1.977,0,0,0-.046-.412,2.06,2.06,0,0,0-.139-.421L374.3,380.9a1.519,1.519,0,0,0-.421-.657,1.658,1.658,0,0,0-.884-.158h-2.675a2.135,2.135,0,0,0-1.055.167,1.318,1.318,0,0,0-.416.648l-.518,1.444a3.238,3.238,0,0,0-.111.361,1.252,1.252,0,0,0-.037.287.844.844,0,0,0,.319.68,2.219,2.219,0,0,0,.986.393.062.062,0,0,0,.028.014.3.3,0,0,0,.065,0,1.6,1.6,0,0,1,.546.171.287.287,0,0,1,.12.246.38.38,0,0,1-.111.3.48.48,0,0,1-.324.1q-.092,0-.916-.093a13.766,13.766,0,0,0-1.527-.092,7.2,7.2,0,0,0-1.092.083l-.556.083a.444.444,0,0,1-.31-.1.362.362,0,0,1-.107-.282q0-.259.417-.426a2.045,2.045,0,0,0,.38-.176,2.077,2.077,0,0,0,.551-.56A8.239,8.239,0,0,0,367.272,382.132Zm3.37-2.989h2.185a1.2,1.2,0,0,0,.449-.065c.1-.043.153-.105.153-.185a.987.987,0,0,0-.046-.217,3.567,3.567,0,0,0-.12-.347l-1.352-3.212a.989.989,0,0,0-.139-.259.2.2,0,0,0-.139-.093.222.222,0,0,0-.157.074.652.652,0,0,0-.13.2l-1.425,3.341a2.511,2.511,0,0,0-.093.273.82.82,0,0,0-.037.2.225.225,0,0,0,.166.227A2.454,2.454,0,0,0,370.641,379.143Z" transform="translate(-264.383 -371.126)" fill="#fff"/>
        <path id="Path_324" data-name="Path 324" d="M413.146,380.413v-4.758a6.342,6.342,0,0,0-.139-1.476,1.8,1.8,0,0,0-.435-.856,1.562,1.562,0,0,0-.439-.315,1.744,1.744,0,0,0-.606-.139h-.009q-.444-.064-.444-.379a.451.451,0,0,1,.083-.31.4.4,0,0,1,.3-.088c.062,0,.128,0,.2.01l.31.028q.222.047.366.065a2.035,2.035,0,0,0,.264.019q.167,0,.361-.019t.5-.065l.481-.028c.111-.007.206-.01.287-.01a1.605,1.605,0,0,1,1.111.722l.065.074,6.526,7.831a3.238,3.238,0,0,0,.444.463.594.594,0,0,0,.315.167c.093,0,.159-.073.2-.217a2.879,2.879,0,0,0,.06-.7V375.6a5.6,5.6,0,0,0-.166-1.6,1.4,1.4,0,0,0-.565-.769,3.1,3.1,0,0,0-1.051-.393q-.625-.125-.625-.4a.311.311,0,0,1,.106-.254.477.477,0,0,1,.31-.088q.158,0,.329.014a3.471,3.471,0,0,1,.366.051c.167.019.345.032.537.042s.394.014.611.014.457-.006.7-.019.54-.034.879-.065c.148-.018.287-.033.417-.042s.247-.014.352-.014a.432.432,0,0,1,.3.079.352.352,0,0,1,.083.264q0,.269-.389.412a2.136,2.136,0,0,0-.574.291,1.408,1.408,0,0,0-.491.676,5.661,5.661,0,0,0-.157,1.5l-.111,9.618a2.185,2.185,0,0,1-.06.6q-.06.195-.19.195-.315,0-.889-.685-.111-.138-.176-.213l-7.785-9.2a1.683,1.683,0,0,0-.268-.264.435.435,0,0,0-.195-.106c-.074,0-.13.067-.167.2a2.378,2.378,0,0,0-.055.6v4.425a17.938,17.938,0,0,0,.139,2.787,2.073,2.073,0,0,0,.482,1.073,1.811,1.811,0,0,0,.962.379h.019a1.459,1.459,0,0,1,.574.166.336.336,0,0,1,.139.287.429.429,0,0,1-.088.319.691.691,0,0,1-.412.079q-.056,0-.722-.093a9.23,9.23,0,0,0-1.268-.092,11.747,11.747,0,0,0-1.356.083q-.717.083-.782.083a.324.324,0,0,1-.269-.116.531.531,0,0,1-.092-.338q0-.222.435-.352l.019-.009a.247.247,0,0,0,.055-.019,1.551,1.551,0,0,0,.722-.435,2.894,2.894,0,0,0,.426-1.328A17.728,17.728,0,0,0,413.146,380.413Z" transform="translate(-295.835 -371.777)" fill="#fff"/>
      </g>
      <g id="Group_243" data-name="Group 243" transform="translate(11.596 19.087)">
        <path id="Path_325" data-name="Path 325" d="M81.9,434.409l-.827-1.65H79.806l1.538,2.908V437.5h1.119v-1.838l1.526-2.907H82.725Z" transform="translate(-79.806 -432.563)" fill="#fff"/>
        <path id="Path_326" data-name="Path 326" d="M101.247,432.926a2.469,2.469,0,0,0-2.392,0,2.259,2.259,0,0,0-.851.867,2.649,2.649,0,0,0,0,2.478,2.261,2.261,0,0,0,.851.866h0a2.462,2.462,0,0,0,2.392,0,2.236,2.236,0,0,0,.848-.868,2.672,2.672,0,0,0,0-2.475A2.243,2.243,0,0,0,101.247,432.926Zm-1.2.763a1.214,1.214,0,0,1,.628.16,1.116,1.116,0,0,1,.429.454,1.518,1.518,0,0,1,.165.729,1.549,1.549,0,0,1-.165.734,1.123,1.123,0,0,1-.429.456,1.307,1.307,0,0,1-1.255,0,1.13,1.13,0,0,1-.429-.456,1.546,1.546,0,0,1-.166-.735,1.522,1.522,0,0,1,.165-.729,1.126,1.126,0,0,1,.431-.455A1.208,1.208,0,0,1,100.048,433.688Z" transform="translate(-92.099 -432.465)" fill="#fff"/>
        <path id="Path_327" data-name="Path 327" d="M121.532,435.654a.912.912,0,0,1-.177.64.85.85,0,0,1-1.047,0,.9.9,0,0,1-.182-.637v-2.895h-1.12v2.889a1.864,1.864,0,0,0,.518,1.412,2,2,0,0,0,2.608,0,1.863,1.863,0,0,0,.518-1.412v-2.889h-1.119Z" transform="translate(-106.742 -432.563)" fill="#fff"/>
        <path id="Path_328" data-name="Path 328" d="M140.475,435.26a1.493,1.493,0,0,0,.332-.973,1.451,1.451,0,0,0-.463-1.109,1.8,1.8,0,0,0-1.266-.419h-1.568V437.5h1.118v-1.683h.183l1,1.683h1.324L140,435.634A1.394,1.394,0,0,0,140.475,435.26Zm-1.848-1.445h.45a.741.741,0,0,1,.483.121.428.428,0,0,1,.117.352.457.457,0,0,1-.13.359.662.662,0,0,1-.463.13h-.456Z" transform="translate(-119.456 -432.563)" fill="#fff"/>
        <path id="Path_329" data-name="Path 329" d="M165.9,437.494h2.819v-1.05h-1.7v-.812h1.528v-1.05h-1.528v-.789h1.7v-1.05H165.9Z" transform="translate(-138.962 -432.552)" fill="#fff"/>
        <path id="Path_330" data-name="Path 330" d="M181.706,434.409l-.827-1.65h-1.27l1.539,2.908V437.5h1.118v-1.838l1.526-2.907h-1.264Z" transform="translate(-148.384 -432.563)" fill="#fff"/>
        <path id="Path_331" data-name="Path 331" d="M198.086,437.494h2.819v-1.05h-1.7v-.812h1.528v-1.05H199.2v-.789h1.7v-1.05h-2.819Z" transform="translate(-161.08 -432.552)" fill="#fff"/>
        <path id="Path_332" data-name="Path 332" d="M215.185,433.787a.378.378,0,0,1,.147.223l.05.3h1.144l-.048-.4a1.387,1.387,0,0,0-.526-.945,1.761,1.761,0,0,0-1.125-.351,1.924,1.924,0,0,0-.828.173,1.442,1.442,0,0,0-.6.509,1.342,1.342,0,0,0-.22.753,1.31,1.31,0,0,0,.24.812,1.389,1.389,0,0,0,.543.432,4.871,4.871,0,0,0,.693.232,4.893,4.893,0,0,1,.5.155.475.475,0,0,1,.189.134.268.268,0,0,1,.05.19.317.317,0,0,1-.117.263.777.777,0,0,1-.838,0,.457.457,0,0,1-.152-.294l-.032-.323h-1.124l.014.371a1.368,1.368,0,0,0,.249.745,1.5,1.5,0,0,0,.62.507h0a2.033,2.033,0,0,0,.848.171,1.827,1.827,0,0,0,.868-.2,1.441,1.441,0,0,0,.588-.545,1.406,1.406,0,0,0,.2-.717,1.29,1.29,0,0,0-.24-.8,1.381,1.381,0,0,0-.548-.435,5.1,5.1,0,0,0-.685-.235,4.639,4.639,0,0,1-.5-.159.484.484,0,0,1-.194-.138.248.248,0,0,1-.048-.178.279.279,0,0,1,.11-.248A.708.708,0,0,1,215.185,433.787Z" transform="translate(-171.416 -432.463)" fill="#fff"/>
        <path id="Path_333" data-name="Path 333" d="M244.7,432.926a2.469,2.469,0,0,0-2.392,0,2.257,2.257,0,0,0-.851.867,2.649,2.649,0,0,0,0,2.478,2.259,2.259,0,0,0,.851.866h0a2.462,2.462,0,0,0,2.392,0,2.235,2.235,0,0,0,.849-.868,2.672,2.672,0,0,0,0-2.475A2.24,2.24,0,0,0,244.7,432.926Zm-1.2.763a1.218,1.218,0,0,1,.628.159,1.117,1.117,0,0,1,.429.455,1.519,1.519,0,0,1,.165.729,1.549,1.549,0,0,1-.165.734,1.126,1.126,0,0,1-.428.456,1.3,1.3,0,0,1-1.255,0,1.133,1.133,0,0,1-.429-.456,1.549,1.549,0,0,1-.165-.735,1.519,1.519,0,0,1,.165-.729,1.122,1.122,0,0,1,.431-.455A1.207,1.207,0,0,1,243.5,433.688Z" transform="translate(-190.667 -432.465)" fill="#fff"/>
        <path id="Path_334" data-name="Path 334" d="M265.148,434.876l-1.68-2.548h-.421l-.129-.2v.2h-.4v4.745h1.119V434.52l1.68,2.553h.426l.124.189v-.189h.4v-4.745h-1.12Z" transform="translate(-205.351 -432.132)" fill="#fff"/>
        <path id="Path_335" data-name="Path 335" d="M291.806,433.81h1.125V437.5h1.119V433.81h1.118v-1.051h-3.362Z" transform="translate(-225.478 -432.563)" fill="#fff"/>
        <path id="Path_336" data-name="Path 336" d="M311.163,434.569h-1.47v-1.81h-1.119V437.5h1.119V435.62h1.47V437.5h1.119v-4.745h-1.119Z" transform="translate(-237.001 -432.563)" fill="#fff"/>
        <path id="Path_337" data-name="Path 337" d="M327.349,437.494h2.819v-1.05h-1.7v-.812H330v-1.05h-1.528v-.789h1.7v-1.05h-2.819Z" transform="translate(-249.902 -432.552)" fill="#fff"/>
        <path id="Path_338" data-name="Path 338" d="M357.16,435.26a1.5,1.5,0,0,0,.331-.973,1.447,1.447,0,0,0-.463-1.109,1.8,1.8,0,0,0-1.266-.419h-1.568V437.5h1.119v-1.683h.182l1,1.683h1.324l-1.134-1.87A1.406,1.406,0,0,0,357.16,435.26Zm-1.848-1.445h.449a.741.741,0,0,1,.483.121.428.428,0,0,1,.117.352.455.455,0,0,1-.13.359.664.664,0,0,1-.464.13h-.456Z" transform="translate(-268.347 -432.563)" fill="#fff"/>
        <path id="Path_339" data-name="Path 339" d="M374.235,432.926a2.469,2.469,0,0,0-2.392,0,2.265,2.265,0,0,0-.851.867,2.646,2.646,0,0,0,0,2.478,2.264,2.264,0,0,0,.851.866h0a2.462,2.462,0,0,0,2.391,0,2.226,2.226,0,0,0,.849-.868,2.666,2.666,0,0,0,0-2.474A2.234,2.234,0,0,0,374.235,432.926Zm-1.2.763a1.217,1.217,0,0,1,.628.16,1.121,1.121,0,0,1,.429.455,1.525,1.525,0,0,1,.165.728,1.542,1.542,0,0,1-.166.734,1.126,1.126,0,0,1-.428.456,1.306,1.306,0,0,1-1.255,0,1.124,1.124,0,0,1-.429-.456,1.541,1.541,0,0,1-.166-.734,1.522,1.522,0,0,1,.166-.73,1.119,1.119,0,0,1,.429-.454A1.214,1.214,0,0,1,373.036,433.688Z" transform="translate(-279.678 -432.465)" fill="#fff"/>
        <path id="Path_340" data-name="Path 340" d="M392.943,432.535l-.066-.18-.066.18H392.4l-1.734,4.692h1.19l.351-.958h1.334l.352.958h1.189l-1.728-4.692Zm-.35,2.686.285-.778.283.778Z" transform="translate(-293.41 -432.285)" fill="#fff"/>
        <path id="Path_341" data-name="Path 341" d="M414.074,433.883a2.045,2.045,0,0,0-.883-.843,2.865,2.865,0,0,0-1.31-.282h-1.551V437.5h1.551a2.886,2.886,0,0,0,1.307-.277,2.02,2.02,0,0,0,.884-.837,2.523,2.523,0,0,0,.3-1.25A2.564,2.564,0,0,0,414.074,433.883Zm-2.624-.073h.432a1.376,1.376,0,0,1,1.028.34,1.341,1.341,0,0,1,.339.991,1.314,1.314,0,0,1-.337.978,1.39,1.39,0,0,1-1.03.336h-.432Z" transform="translate(-306.921 -432.563)" fill="#fff"/>
      </g>
      <rect id="Rectangle_528" data-name="Rectangle 528" width="7.309" height="0.821" transform="translate(0 21.347)" fill="#fff"/>
    </g>
    <g id="Group_245" data-name="Group 245" transform="translate(47.849 51.471)">
      <path id="Path_342" data-name="Path 342" d="M90.326,130.987c-8.135,1.726-14.178,4.177-17.14,5.955A40.829,40.829,0,0,0,68.8,140.01a35.261,35.261,0,0,0-3.144,3.015c-2.42,2.692-5.213,9.913-6.27,19.653-.338-2.392-1.753-14.132,5.839-22.387a27.75,27.75,0,0,1,9.741-6.484A35.013,35.013,0,0,1,90.326,130.987Z" transform="translate(-59.062 -106.088)" fill="#39ff14"/>
      <path id="Path_343" data-name="Path 343" d="M236.214,149.557a21.91,21.91,0,0,1-21.891,21.825,21.948,21.948,0,1,1,.066-43.895A21.837,21.837,0,0,1,236.214,149.557Zm-3.282-.623a18.066,18.066,0,0,0-17.923-17.939c-11.152.024-18.25,9.8-17.906,18.056.412,9.907,8.056,17.91,17.948,17.884A18.129,18.129,0,0,0,232.932,148.934Z" transform="translate(-150.564 -103.705)" fill="#3cbbe5"/>
      <path id="Path_344" data-name="Path 344" d="M228.756,176.485a16.375,16.375,0,1,1,16.358-16.277A16.317,16.317,0,0,1,228.756,176.485Zm15.109-16.431a15.125,15.125,0,0,0-15.2-15.084c-8,.136-14.785,5.791-15.084,15.214-.261,8.234,6.888,15.11,15.2,15.08A15.174,15.174,0,0,0,243.865,160.054Z" transform="translate(-164.332 -114.868)" fill="#007ab6"/>
      <path id="Path_345" data-name="Path 345" d="M253.2,174.678a9.733,9.733,0,0,1-19.466.084,9.733,9.733,0,1,1,19.466-.084Zm-5.358-.081a4.461,4.461,0,0,0-4.38-4.313,4.376,4.376,0,1,0,.144,8.75A4.422,4.422,0,0,0,247.84,174.6Zm-12.862.093a2.661,2.661,0,0,0,.128,1.032,13.676,13.676,0,0,0,1.13,1.646,6.836,6.836,0,0,0,.423-1.816c-.2-4.434,1.145-6.369,5.416-7.8.534-.179.932-.761,1.393-1.156a4.3,4.3,0,0,0-1.608-.409A8.245,8.245,0,0,0,234.978,174.689Z" transform="translate(-179.084 -129.423)" fill="#3cbbe5"/>
      <path id="Path_346" data-name="Path 346" d="M386.83,186.894a5.57,5.57,0,0,0,.516-5.808,10.3,10.3,0,0,0-1.861-2.834l-4-4.431a67.188,67.188,0,0,1-3.442,18.213l6.08-2.941A7.128,7.128,0,0,0,386.83,186.894Z" transform="translate(-278.242 -135.542)" fill="none"/>
      <path id="Path_347" data-name="Path 347" d="M387.44,187.3a4.769,4.769,0,0,0,1.134-5.143c-1.218-3.655-4.07-5.927-7.093-8.336l4,4.431a10.235,10.235,0,0,1,1.939,3.023,5.516,5.516,0,0,1-.594,5.619,7.676,7.676,0,0,1-2.477,2.061c-.155.092-.316.177-.478.255l-5.837,2.824a20.5,20.5,0,0,0,5.479-1.854A14.321,14.321,0,0,0,387.44,187.3Z" transform="translate(-278.242 -135.542)" fill="#39ff14"/>
      <path id="Path_348" data-name="Path 348" d="M177.268,99.577a8.711,8.711,0,0,0-2.409-5.35,76.077,76.077,0,0,0-5.964-5.539,3.006,3.006,0,0,1-.878-1.085,2.559,2.559,0,0,1-.194-1.163c.048-1.014.106-8.266.187-18.6-1.972,0-3.9.151-5.79-.028a40.332,40.332,0,0,1-16.11-5.24c-5.976-3.383-11.769-7.09-17.61-10.708a1.757,1.757,0,0,0-2.2-.018c-5.866,3.642-11.691,7.365-17.7,10.762a40.229,40.229,0,0,1-16.017,5.2c-1.893.181-3.818.029-5.774.029v7.855l8.914.677a49.279,49.279,0,0,0-10.9,2.973A35.556,35.556,0,0,0,71.62,87.807a15.656,15.656,0,0,0-4.481,8.322A16.118,16.118,0,0,0,69.5,107.2a18.286,18.286,0,0,1,.986-10.075,18.025,18.025,0,0,1,4.454-6.41A30.587,30.587,0,0,1,86.207,84.26a70.206,70.206,0,0,1,19.086-3.5,2.725,2.725,0,0,0,2.017-1.037c6.877-7.574,15.456-10.77,25.528-9.222A27.931,27.931,0,0,1,155.4,105.846c-.67,2.358-1.779,4.59-2.68,6.868a91.58,91.58,0,0,0,14.428-3.155,22.017,22.017,0,0,0,7.71-4.31A6.831,6.831,0,0,0,177.268,99.577ZM167.7,89.75c3.023,2.409,5.875,4.681,7.093,8.336a4.769,4.769,0,0,1-1.134,5.143,14.32,14.32,0,0,1-3.923,2.88,20.5,20.5,0,0,1-5.479,1.854A67.185,67.185,0,0,0,167.7,89.75Z" transform="translate(-64.465 -51.471)" fill="#3cbbe5"/>
      <path id="Path_349" data-name="Path 349" d="M198.474,171.113c.237.763.488,1.522.707,2.29,2.029,7.1.033,13.064-6.045,17.239a38.063,38.063,0,0,1-7.193,3.795c-6.8,2.766-14.007,3.967-21.227,5.037a6.64,6.64,0,0,0-2.892,1.057,25.524,25.524,0,0,1-11,4.353c-11.158,1.5-20.317-2.184-27.11-11.17a26.69,26.69,0,0,1-4.415-8.69c-1.115-3.845-.92-7.13-.723-11.469a63.54,63.54,0,0,1,.731-7.166,108.848,108.848,0,0,0-18.05,5.493,17.4,17.4,0,0,0-6.08,4.384c-2.557,2.867-2.884,6.2-.59,9.265a24.77,24.77,0,0,0,4.475,4.5,52.16,52.16,0,0,0,12.482,6.756c.813.34,1.637.653,2.622,1.045-1.213-2.035-1.228-2-3.027-2.867-2.043-.981-4.1-1.944-6.071-3.061-3.1-1.762-6.114-3.675-8.2-6.7q-3.261-4.746,1.078-8.536h0c1.349-1.349,3.784-2.68,7.435-3.986l.393,2.092a70.572,70.572,0,0,0,5.338,16.993,49.461,49.461,0,0,0,7.353,10.4c7.556,8.242,16.762,14.267,26.435,19.659a4.405,4.405,0,0,0,1.027-.076c10-1.009,17.368-8.446,22.264-15.449l-8.624-1.135a99.174,99.174,0,0,0,23.758-5.731c5.72-2.172,9.612-4.543,13.226-8.258C202.3,185.26,202.42,177.919,198.474,171.113Z" transform="translate(-82.413 -130.435)" fill="#007ab6"/>
      <path id="Path_350" data-name="Path 350" d="M132.9,187.121" transform="translate(-109.796 -144.681)" fill="#7fd287"/>
      <path id="Path_351" data-name="Path 351" d="M119.181,210.112a13.979,13.979,0,0,0-1.287-.967q-.287-.191-.566-.357l-.419-.265c-2.031-1.289-4.394-2.81-7.061-4.569a35.617,35.617,0,0,1-5.259-4.558,6,6,0,0,1-2.178-3.829c-.182-3.861,5.463-7.367,6.8-8.2a16.608,16.608,0,0,1,1.521-.88c-.529.182-.99.334-1.866.71a24.467,24.467,0,0,0-3.6,1.776c-1.058.7-4,2.463-4.392,5.429a5.787,5.787,0,0,0,.144,2.131,8.906,8.906,0,0,0,2.565,4.176,19.993,19.993,0,0,0,3.439,2.916,37.279,37.279,0,0,0,3.918,2.38s2.72,1.513,5.663,2.824h0Z" transform="translate(-87.76 -144.246)" fill="#39ff14"/>
      <path id="Path_352" data-name="Path 352" d="M397.253,203.811c.745-.207,8.214-2.418,10.943-9.979a16.381,16.381,0,0,0-.691-12.343c.03.091.073.228.124.4a21.827,21.827,0,0,1,.734,7.395C408.049,192.5,404.635,198.976,397.253,203.811Z" transform="translate(-291.445 -140.811)" fill="#39ff14"/>
      <path id="Path_353" data-name="Path 353" d="M285.423,186.815a15.455,15.455,0,0,1-2.356,11.689,15.7,15.7,0,0,1-8.2,5.737,14.855,14.855,0,0,1-1.71.4c-.017,0,.551-.177.605-.193a17.814,17.814,0,0,0,11.663-17.632Z" transform="translate(-206.173 -144.47)" fill="#39ff14"/>
      <path id="Path_354" data-name="Path 354" d="M306.643,258.884s40.769,8.442,42.016-14.253C348.659,244.631,347.073,263.16,306.643,258.884Z" transform="translate(-229.184 -184.198)" fill="#39ff14"/>
    </g>
  </g>
</svg>
