<svg xmlns="http://www.w3.org/2000/svg" width="170.042" height="162.881" viewBox="0 0 170.042 162.881">
  <g id="Group_246" data-name="Group 246" transform="translate(-42.743 -51.471)">
    <g id="Group_244" data-name="Group 244" transform="translate(42.743 182.599)">
      <rect id="Rectangle_527" data-name="Rectangle 527" width="9.583" height="1.076" transform="translate(160.459 27.989)" fill="#3cbbe5"/>
      <g id="Group_242" data-name="Group 242">
        <path id="Path_315" data-name="Path 315" d="M45.377,376.153a7.2,7.2,0,0,0-.14-1.7,1.851,1.851,0,0,0-.5-.861,2.344,2.344,0,0,0-1.2-.51.049.049,0,0,1-.037-.012h-.024q-.729-.121-.729-.546a.485.485,0,0,1,.158-.382.636.636,0,0,1,.437-.139q.049,0,1.081.1t2,.1q1.116,0,2.64-.128T51,371.954a6.608,6.608,0,0,1,4.339,1.311,4.359,4.359,0,0,1,1.584,3.545,4.78,4.78,0,0,1-1.475,3.586,5.1,5.1,0,0,1-3.7,1.426,5.524,5.524,0,0,1-1.887-.261q-.7-.261-.7-.71a.326.326,0,0,1,.1-.237.357.357,0,0,1,.261-.1c.016,0,.144.021.382.061a4.3,4.3,0,0,0,.722.06,3.1,3.1,0,0,0,2.36-.837,3.489,3.489,0,0,0,.8-2.488,4.481,4.481,0,0,0-1.038-3.1,3.531,3.531,0,0,0-2.773-1.165,1.443,1.443,0,0,0-1.256.473,5.454,5.454,0,0,0-.334,2.488v9.819a3.9,3.9,0,0,0,.274,1.6,1.809,1.809,0,0,0,.843.892,2.211,2.211,0,0,0,.243.091c.089.028.222.063.4.1l.037.012q.716.17.716.583a.529.529,0,0,1-.146.418.711.711,0,0,1-.473.128q-.073,0-1.08-.109a18.093,18.093,0,0,0-1.954-.109q-.972,0-2.112.109t-1.3.109a.727.727,0,0,1-.437-.115.378.378,0,0,1-.158-.322.587.587,0,0,1,.121-.388,1.683,1.683,0,0,1,.559-.34c.04-.024.112-.062.218-.115s.186-.095.242-.127a1.894,1.894,0,0,0,.758-.9,3.8,3.8,0,0,0,.237-1.445Z" transform="translate(-42.743 -371.614)" fill="#007ab6"/>
        <path id="Path_316" data-name="Path 316" d="M77.844,385.557l6.263-14.091v-.012q.145-.328.388-.328a.38.38,0,0,1,.26.121.955.955,0,0,1,.212.315l6.348,14.82a3.516,3.516,0,0,0,.637,1.062,2.147,2.147,0,0,0,.843.528,2.92,2.92,0,0,0,.291.085.387.387,0,0,0,.061.012l.012.012q.559.17.558.583a.63.63,0,0,1-.079.383q-.079.09-.37.09-.194,0-1.365-.109t-2.13-.109a19.664,19.664,0,0,0-2.8.206c-.194.025-.312.037-.352.037a.35.35,0,0,1-.286-.146.586.586,0,0,1-.115-.377q0-.242.558-.521l.073-.037a2.043,2.043,0,0,0,.911-.576,1.286,1.286,0,0,0,.242-.8,2.587,2.587,0,0,0-.06-.54,2.7,2.7,0,0,0-.182-.552l-.7-1.675a2,2,0,0,0-.552-.861,2.176,2.176,0,0,0-1.159-.207H81.837a2.8,2.8,0,0,0-1.383.219,1.728,1.728,0,0,0-.546.85l-.68,1.893a4.255,4.255,0,0,0-.146.474,1.647,1.647,0,0,0-.049.376,1.107,1.107,0,0,0,.418.892,2.911,2.911,0,0,0,1.293.516.08.08,0,0,0,.037.018.393.393,0,0,0,.085.006,2.1,2.1,0,0,1,.716.224.377.377,0,0,1,.158.322.5.5,0,0,1-.145.395.628.628,0,0,1-.425.127q-.122,0-1.2-.121a18.046,18.046,0,0,0-2-.121,9.452,9.452,0,0,0-1.432.109q-.717.109-.729.109a.583.583,0,0,1-.407-.128.476.476,0,0,1-.139-.37q0-.34.546-.558a2.687,2.687,0,0,0,.5-.231,2.716,2.716,0,0,0,.722-.735A10.8,10.8,0,0,0,77.844,385.557Zm4.418-3.92h2.865a1.569,1.569,0,0,0,.588-.085c.134-.056.2-.138.2-.243a1.307,1.307,0,0,0-.061-.285,4.786,4.786,0,0,0-.158-.455l-1.773-4.212a1.3,1.3,0,0,0-.182-.34.26.26,0,0,0-.182-.121.29.29,0,0,0-.206.1.853.853,0,0,0-.169.267l-1.869,4.381a3.208,3.208,0,0,0-.121.359,1.059,1.059,0,0,0-.049.261.3.3,0,0,0,.218.3A3.219,3.219,0,0,0,82.262,381.637Z" transform="translate(-61.92 -371.126)" fill="#007ab6"/>
        <path id="Path_317" data-name="Path 317" d="M123.749,383.009V376.77a8.341,8.341,0,0,0-.182-1.936,2.354,2.354,0,0,0-.571-1.122,2.042,2.042,0,0,0-.576-.413,2.287,2.287,0,0,0-.8-.182h-.012q-.583-.084-.583-.5a.591.591,0,0,1,.109-.407.525.525,0,0,1,.388-.116c.081,0,.168,0,.261.013l.407.036c.194.041.354.069.48.085a2.677,2.677,0,0,0,.346.025q.219,0,.473-.025t.656-.085l.631-.036c.146-.009.271-.013.377-.013a2.106,2.106,0,0,1,1.456.947l.085.1,8.557,10.268a4.258,4.258,0,0,0,.583.607.779.779,0,0,0,.413.219c.122,0,.208-.1.261-.285a3.8,3.8,0,0,0,.079-.917V376.7a7.361,7.361,0,0,0-.218-2.1,1.842,1.842,0,0,0-.74-1.008,4.069,4.069,0,0,0-1.378-.516q-.819-.164-.82-.528a.407.407,0,0,1,.14-.333.624.624,0,0,1,.407-.116c.138,0,.281.006.431.018a4.58,4.58,0,0,1,.48.067c.218.025.452.042.7.055s.517.018.8.018.6-.008.923-.025.708-.044,1.153-.085q.291-.036.546-.055c.17-.012.323-.018.461-.018a.566.566,0,0,1,.388.1.462.462,0,0,1,.109.346q0,.353-.509.54a2.788,2.788,0,0,0-.752.382,1.844,1.844,0,0,0-.643.886,7.408,7.408,0,0,0-.206,1.967l-.146,12.611a2.881,2.881,0,0,1-.079.788q-.079.255-.249.256-.413,0-1.165-.9c-.1-.121-.174-.214-.231-.279l-10.207-12.064a2.249,2.249,0,0,0-.352-.346.571.571,0,0,0-.256-.139c-.1,0-.169.087-.218.261a3.133,3.133,0,0,0-.073.782v5.8a23.518,23.518,0,0,0,.182,3.654,2.718,2.718,0,0,0,.631,1.407,2.376,2.376,0,0,0,1.262.5h.025a1.917,1.917,0,0,1,.752.218.441.441,0,0,1,.182.377.563.563,0,0,1-.116.418.906.906,0,0,1-.54.1q-.073,0-.947-.121a12.1,12.1,0,0,0-1.662-.121,15.406,15.406,0,0,0-1.778.109q-.941.109-1.025.109a.426.426,0,0,1-.353-.152.7.7,0,0,1-.121-.443q0-.291.57-.461l.025-.012a.323.323,0,0,0,.073-.024,2.032,2.032,0,0,0,.946-.571,3.8,3.8,0,0,0,.559-1.742A23.245,23.245,0,0,0,123.749,383.009Z" transform="translate(-88.915 -371.685)" fill="#007ab6"/>
        <path id="Path_318" data-name="Path 318" d="M170.47,380.659a8.916,8.916,0,0,1,2.712-6.639,9.376,9.376,0,0,1,6.84-2.658,8.792,8.792,0,0,1,6.463,2.537,8.6,8.6,0,0,1,2.555,6.36,8.985,8.985,0,0,1-2.707,6.688,9.446,9.446,0,0,1-6.906,2.658,8.676,8.676,0,0,1-8.957-8.945Zm3.18-1.153a10.839,10.839,0,0,0,1.772,6.463,5.468,5.468,0,0,0,4.648,2.47,5.321,5.321,0,0,0,4.248-1.815,7.355,7.355,0,0,0,1.565-4.97,11.085,11.085,0,0,0-1.814-6.578,5.491,5.491,0,0,0-4.643-2.549,5.215,5.215,0,0,0-4.248,1.846A7.816,7.816,0,0,0,173.65,379.506Z" transform="translate(-118.074 -371.265)" fill="#007ab6"/>
        <path id="Path_319" data-name="Path 319" d="M220.444,376.153a7.2,7.2,0,0,0-.14-1.7,1.847,1.847,0,0,0-.5-.861,2.344,2.344,0,0,0-1.2-.51.048.048,0,0,1-.036-.012h-.024q-.728-.121-.728-.546a.485.485,0,0,1,.158-.382A.638.638,0,0,1,218.4,372q.049,0,1.081.1t2,.1q1.116,0,2.64-.128t1.936-.127a6.609,6.609,0,0,1,4.339,1.311,4.359,4.359,0,0,1,1.584,3.545,4.781,4.781,0,0,1-1.475,3.586,5.1,5.1,0,0,1-3.7,1.426,5.525,5.525,0,0,1-1.887-.261q-.7-.261-.7-.71a.326.326,0,0,1,.1-.237.357.357,0,0,1,.261-.1c.016,0,.144.021.382.061a4.3,4.3,0,0,0,.723.06,3.1,3.1,0,0,0,2.36-.837,3.49,3.49,0,0,0,.795-2.488,4.483,4.483,0,0,0-1.037-3.1,3.532,3.532,0,0,0-2.773-1.165,1.443,1.443,0,0,0-1.256.473,5.454,5.454,0,0,0-.334,2.488v9.819a3.9,3.9,0,0,0,.273,1.6,1.81,1.81,0,0,0,.844.892,2.2,2.2,0,0,0,.242.091c.089.028.223.063.4.1l.036.012q.716.17.716.583a.529.529,0,0,1-.146.418.712.712,0,0,1-.473.128q-.073,0-1.081-.109a18.088,18.088,0,0,0-1.954-.109q-.971,0-2.112.109t-1.3.109a.729.729,0,0,1-.437-.115.377.377,0,0,1-.158-.322.587.587,0,0,1,.121-.388,1.68,1.68,0,0,1,.559-.34c.04-.024.113-.062.218-.115s.186-.095.243-.127a1.9,1.9,0,0,0,.758-.9,3.8,3.8,0,0,0,.237-1.445Z" transform="translate(-145.994 -371.614)" fill="#007ab6"/>
        <path id="Path_320" data-name="Path 320" d="M261.455,374.707q0-.764-.26-.953a2.965,2.965,0,0,0-1.378-.188,8.19,8.19,0,0,0-2.634.291,1.883,1.883,0,0,0-1.081,1.032,7.668,7.668,0,0,0-.425,1.226q-.218.837-.692.837a.35.35,0,0,1-.3-.133.7.7,0,0,1-.1-.413c.008-.056.032-.214.073-.473q.255-1.481.352-2.828a1.814,1.814,0,0,1,.188-.868.7.7,0,0,1,.54-.164q.158,0,1.535.078t2.567.079h5.886q1.239,0,2.688-.066t1.681-.067a1.281,1.281,0,0,1,.764.14.93.93,0,0,1,.182.577l.206,2.549v.218a1.014,1.014,0,0,1-.061.473q-.061.073-.291.073-.437,0-.607-.607a4.6,4.6,0,0,0-.291-.789,1.779,1.779,0,0,0-1.013-.892,7.752,7.752,0,0,0-2.361-.249h-.206a3.437,3.437,0,0,0-1.615.213q-.267.212-.267.989V385.9a3.4,3.4,0,0,0,.31,1.6,2.048,2.048,0,0,0,1.037.886,4.607,4.607,0,0,0,.7.183.208.208,0,0,0,.061.012l.036.012q.8.183.8.607a.468.468,0,0,1-.164.395.771.771,0,0,1-.48.128q-.17,0-1.353-.109t-2.179-.109q-1.032,0-2.378.121t-1.615.121a.851.851,0,0,1-.516-.139.45.45,0,0,1-.188-.383q0-.388.74-.571h.012c.049-.016.154-.046.315-.091a4.182,4.182,0,0,0,.4-.128,2.032,2.032,0,0,0,1.038-.886,3.214,3.214,0,0,0,.334-1.578Z" transform="translate(-167.683 -371.685)" fill="#007ab6"/>
        <path id="Path_321" data-name="Path 321" d="M298.806,376.224a6.875,6.875,0,0,0-.146-1.723,1.858,1.858,0,0,0-.522-.837,1.812,1.812,0,0,0-.528-.328,3.606,3.606,0,0,0-.843-.194h-.025q-.765-.134-.765-.546a.468.468,0,0,1,.17-.382.727.727,0,0,1,.473-.139c.032,0,.146.008.34.024q1.905.183,3.957.182,2.124,0,4.466-.091t2.573-.091q.691,0,.843.158a1.117,1.117,0,0,1,.152.716v.522q0,.887.025,1.857v.255a.653.653,0,0,1-.085.4.409.409,0,0,1-.316.1q-.4,0-.455-.576a2.823,2.823,0,0,0-.188-.868,2.133,2.133,0,0,0-1.311-1.092,9.5,9.5,0,0,0-2.84-.315,2.846,2.846,0,0,0-1.572.315,1.28,1.28,0,0,0-.443,1.116v3.884a1.089,1.089,0,0,0,.249.8,1.148,1.148,0,0,0,.82.243h.8a3.744,3.744,0,0,0,1.341-.194,1.96,1.96,0,0,0,.843-.656,3.792,3.792,0,0,0,.377-.7q.315-.716.692-.716a.368.368,0,0,1,.3.121.646.646,0,0,1,.1.4c0,.025-.009.1-.025.231q-.073.825-.073,1.662a25.8,25.8,0,0,0,.158,2.792c.024.242.036.388.036.436a.5.5,0,0,1-.11.359.414.414,0,0,1-.315.115q-.4,0-.5-.655a4.471,4.471,0,0,0-.169-.752,1.828,1.828,0,0,0-.813-1.014,3.8,3.8,0,0,0-1.7-.285h-.971a1.042,1.042,0,0,0-.825.261,1.948,1.948,0,0,0-.219,1.135v3.871a2.982,2.982,0,0,0,.388,1.918,2.4,2.4,0,0,0,1.6.377,7.848,7.848,0,0,0,2.446-.395,5.748,5.748,0,0,0,1.972-1.05,4.194,4.194,0,0,0,.934-1.105c.267-.445.477-.667.631-.667a.3.3,0,0,1,.255.139.612.612,0,0,1,.1.358,4.363,4.363,0,0,1-.279,1.31,5.433,5.433,0,0,1-.692,1.409,3.012,3.012,0,0,1-1.3,1.067,5.022,5.022,0,0,1-1.972.34q-.51,0-2.063-.109T301.2,389.5q-1.263,0-2.579.109t-1.353.109a.729.729,0,0,1-.437-.115.377.377,0,0,1-.158-.322.587.587,0,0,1,.121-.388,1.679,1.679,0,0,1,.559-.34c.04-.024.113-.062.218-.115s.186-.095.243-.127a1.9,1.9,0,0,0,.759-.9,3.8,3.8,0,0,0,.237-1.445Z" transform="translate(-192.096 -371.685)" fill="#007ab6"/>
        <path id="Path_322" data-name="Path 322" d="M334.925,387.839l-.8-3.58q-.037-.146-.066-.279a1.242,1.242,0,0,1-.031-.158.714.714,0,0,1,.109-.462.509.509,0,0,1,.388-.121q.279,0,.57.819a10.033,10.033,0,0,0,.668,1.5,6.431,6.431,0,0,0,1.9,2.154,3.982,3.982,0,0,0,2.3.783,3.418,3.418,0,0,0,2.452-.911,3.131,3.131,0,0,0,.959-2.379q0-1.844-3.69-3.435l-.388-.169-.025-.012q-4.891-2.087-4.891-5.3a4.557,4.557,0,0,1,1.39-3.374,4.78,4.78,0,0,1,3.5-1.372,6.558,6.558,0,0,1,2.246.425,6.185,6.185,0,0,0,1.48.425,1.4,1.4,0,0,0,.662-.164,1.336,1.336,0,0,1,.382-.164.435.435,0,0,1,.346.121.668.668,0,0,1,.1.425c0,.089-.008.228-.024.418s-.025.342-.025.456a11.5,11.5,0,0,0,.176,1.7,11.527,11.527,0,0,1,.176,1.5.712.712,0,0,1-.085.412.347.347,0,0,1-.291.11q-.376,0-.607-.808a6.7,6.7,0,0,0-.655-1.535,4.777,4.777,0,0,0-1.729-1.663,4.537,4.537,0,0,0-2.276-.619,2.849,2.849,0,0,0-1.978.7,2.244,2.244,0,0,0-.777,1.742,2.3,2.3,0,0,0,.74,1.729,8.588,8.588,0,0,0,2.743,1.475q.219.086.679.255a10.388,10.388,0,0,1,3.217,1.687,4.664,4.664,0,0,1,1.11,1.687,5.9,5.9,0,0,1,.382,2.16,5.583,5.583,0,0,1-1.511,4.066,5.249,5.249,0,0,1-3.939,1.554,7.416,7.416,0,0,1-2.263-.413q-1.269-.412-1.559-.461c-.033-.008-.075-.016-.128-.025s-.1-.016-.128-.024a.871.871,0,0,1-.788-.789l-.018-.036A.122.122,0,0,1,334.925,387.839Z" transform="translate(-214.537 -371.37)" fill="#007ab6"/>
        <path id="Path_323" data-name="Path 323" d="M367.885,385.557l6.263-14.091v-.012q.146-.328.388-.328a.38.38,0,0,1,.261.121.948.948,0,0,1,.212.315l6.348,14.82a3.507,3.507,0,0,0,.637,1.062,2.152,2.152,0,0,0,.844.528,2.889,2.889,0,0,0,.291.085.379.379,0,0,0,.061.012l.012.012q.559.17.558.583a.63.63,0,0,1-.079.383.515.515,0,0,1-.37.09q-.194,0-1.365-.109t-2.13-.109a19.672,19.672,0,0,0-2.8.206c-.194.025-.312.037-.352.037a.35.35,0,0,1-.285-.146.584.584,0,0,1-.115-.377q0-.242.558-.521l.073-.037a2.043,2.043,0,0,0,.911-.576,1.286,1.286,0,0,0,.242-.8,2.589,2.589,0,0,0-.06-.54,2.7,2.7,0,0,0-.182-.552l-.7-1.675a1.993,1.993,0,0,0-.552-.861,2.174,2.174,0,0,0-1.159-.207h-3.508a2.8,2.8,0,0,0-1.383.219,1.728,1.728,0,0,0-.546.85l-.68,1.893a4.264,4.264,0,0,0-.146.474,1.644,1.644,0,0,0-.048.376,1.107,1.107,0,0,0,.418.892,2.909,2.909,0,0,0,1.293.516.081.081,0,0,0,.037.018.4.4,0,0,0,.085.006,2.105,2.105,0,0,1,.716.224.377.377,0,0,1,.158.322.5.5,0,0,1-.145.395.63.63,0,0,1-.425.127q-.121,0-1.2-.121a18.046,18.046,0,0,0-2-.121,9.448,9.448,0,0,0-1.432.109q-.717.109-.729.109a.583.583,0,0,1-.407-.128.474.474,0,0,1-.14-.37q0-.34.546-.558a2.687,2.687,0,0,0,.5-.231,2.722,2.722,0,0,0,.722-.735A10.805,10.805,0,0,0,367.885,385.557Zm4.418-3.92h2.865a1.571,1.571,0,0,0,.588-.085c.134-.056.2-.138.2-.243a1.3,1.3,0,0,0-.06-.285,4.676,4.676,0,0,0-.158-.455l-1.772-4.212a1.3,1.3,0,0,0-.182-.34.261.261,0,0,0-.182-.121.29.29,0,0,0-.206.1.853.853,0,0,0-.17.267l-1.869,4.381a3.3,3.3,0,0,0-.121.359,1.073,1.073,0,0,0-.048.261.3.3,0,0,0,.218.3A3.215,3.215,0,0,0,372.3,381.637Z" transform="translate(-232.981 -371.126)" fill="#007ab6"/>
        <path id="Path_324" data-name="Path 324" d="M413.791,383.009V376.77a8.317,8.317,0,0,0-.183-1.936,2.354,2.354,0,0,0-.571-1.122,2.048,2.048,0,0,0-.576-.413,2.286,2.286,0,0,0-.795-.182h-.012q-.583-.084-.582-.5a.591.591,0,0,1,.109-.407.524.524,0,0,1,.388-.116q.121,0,.261.013l.407.036q.291.061.48.085a2.672,2.672,0,0,0,.346.025q.218,0,.473-.025c.17-.016.388-.044.656-.085l.631-.036c.146-.009.271-.013.376-.013a2.1,2.1,0,0,1,1.456.947l.085.1,8.557,10.268a4.237,4.237,0,0,0,.583.607.779.779,0,0,0,.413.219q.182,0,.26-.285a3.774,3.774,0,0,0,.079-.917V376.7a7.347,7.347,0,0,0-.218-2.1,1.839,1.839,0,0,0-.74-1.008,4.067,4.067,0,0,0-1.378-.516q-.82-.164-.82-.528a.408.408,0,0,1,.139-.333.625.625,0,0,1,.407-.116q.207,0,.431.018a4.564,4.564,0,0,1,.48.067c.218.025.453.042.7.055s.517.018.8.018.6-.008.923-.025.708-.044,1.153-.085c.194-.024.376-.043.546-.055s.323-.018.461-.018a.566.566,0,0,1,.388.1.462.462,0,0,1,.109.346q0,.353-.509.54a2.8,2.8,0,0,0-.753.382,1.847,1.847,0,0,0-.643.886,7.424,7.424,0,0,0-.206,1.967l-.146,12.611a2.864,2.864,0,0,1-.079.788q-.079.255-.249.256-.413,0-1.165-.9-.146-.181-.231-.279L415.83,376.709a2.214,2.214,0,0,0-.352-.346.571.571,0,0,0-.255-.139q-.146,0-.218.261a3.114,3.114,0,0,0-.073.782v5.8a23.521,23.521,0,0,0,.182,3.654,2.718,2.718,0,0,0,.631,1.407,2.374,2.374,0,0,0,1.262.5h.025a1.912,1.912,0,0,1,.752.218.44.44,0,0,1,.183.377.563.563,0,0,1-.116.418.906.906,0,0,1-.54.1q-.073,0-.947-.121a12.106,12.106,0,0,0-1.663-.121,15.412,15.412,0,0,0-1.778.109q-.94.109-1.025.109a.425.425,0,0,1-.352-.152.7.7,0,0,1-.121-.443q0-.291.57-.461l.025-.012a.324.324,0,0,0,.072-.024,2.034,2.034,0,0,0,.947-.571,3.8,3.8,0,0,0,.559-1.742A23.24,23.24,0,0,0,413.791,383.009Z" transform="translate(-259.976 -371.685)" fill="#007ab6"/>
      </g>
      <g id="Group_243" data-name="Group 243" transform="translate(15.204 25.026)">
        <path id="Path_325" data-name="Path 325" d="M82.555,434.923l-1.085-2.164H79.806l2.017,3.813v2.409H83.29v-2.41l2-3.812H83.633Z" transform="translate(-79.806 -432.502)" fill="#3cbbe5"/>
        <path id="Path_326" data-name="Path 326" d="M102.352,433.022a3.238,3.238,0,0,0-3.137,0,2.962,2.962,0,0,0-1.116,1.136,3.473,3.473,0,0,0,0,3.249,2.964,2.964,0,0,0,1.116,1.136h0a3.228,3.228,0,0,0,3.136,0,2.931,2.931,0,0,0,1.113-1.138,3.5,3.5,0,0,0,0-3.245A2.939,2.939,0,0,0,102.352,433.022Zm-1.572,1a1.592,1.592,0,0,1,.823.21,1.463,1.463,0,0,1,.562.6,1.991,1.991,0,0,1,.216.956,2.031,2.031,0,0,1-.216.962,1.472,1.472,0,0,1-.562.6,1.714,1.714,0,0,1-1.645,0,1.483,1.483,0,0,1-.562-.6,2.027,2.027,0,0,1-.217-.963,2,2,0,0,1,.216-.956,1.477,1.477,0,0,1,.564-.6A1.584,1.584,0,0,1,100.78,434.022Z" transform="translate(-90.357 -432.418)" fill="#3cbbe5"/>
        <path id="Path_327" data-name="Path 327" d="M122.318,436.555a1.2,1.2,0,0,1-.232.839,1.114,1.114,0,0,1-1.373,0,1.176,1.176,0,0,1-.238-.836v-3.8h-1.469v3.788a2.444,2.444,0,0,0,.679,1.851,2.616,2.616,0,0,0,3.42,0,2.442,2.442,0,0,0,.68-1.852v-3.788h-1.467Z" transform="translate(-102.925 -432.502)" fill="#3cbbe5"/>
        <path id="Path_328" data-name="Path 328" d="M141.4,436.039a1.958,1.958,0,0,0,.435-1.275,1.9,1.9,0,0,0-.608-1.454,2.358,2.358,0,0,0-1.661-.55h-2.056v6.222h1.466v-2.207h.24l1.306,2.207h1.736l-1.486-2.452A1.827,1.827,0,0,0,141.4,436.039Zm-2.423-1.895h.59a.971.971,0,0,1,.633.158.561.561,0,0,1,.153.461.6.6,0,0,1-.171.471.869.869,0,0,1-.608.171h-.6Z" transform="translate(-113.838 -432.502)" fill="#3cbbe5"/>
        <path id="Path_329" data-name="Path 329" d="M165.9,438.972h3.7V437.6h-2.23v-1.065h2v-1.376h-2V434.12h2.23v-1.376h-3.7Z" transform="translate(-130.581 -432.493)" fill="#3cbbe5"/>
        <path id="Path_330" data-name="Path 330" d="M182.358,434.923l-1.085-2.164h-1.665l2.018,3.813v2.409h1.466v-2.41l2-3.812h-1.657Z" transform="translate(-138.667 -432.502)" fill="#3cbbe5"/>
        <path id="Path_331" data-name="Path 331" d="M198.086,438.972h3.7V437.6h-2.229v-1.065h2v-1.376h-2V434.12h2.229v-1.376h-3.7Z" transform="translate(-149.565 -432.493)" fill="#3cbbe5"/>
        <path id="Path_332" data-name="Path 332" d="M215.825,434.151a.5.5,0,0,1,.193.293l.065.393h1.5l-.063-.524a1.819,1.819,0,0,0-.69-1.239,2.309,2.309,0,0,0-1.476-.46,2.522,2.522,0,0,0-1.086.226,1.89,1.89,0,0,0-.787.668,1.76,1.76,0,0,0-.288.987,1.718,1.718,0,0,0,.314,1.065,1.821,1.821,0,0,0,.712.566,6.384,6.384,0,0,0,.909.3,6.409,6.409,0,0,1,.653.2.622.622,0,0,1,.247.176.352.352,0,0,1,.066.249.416.416,0,0,1-.154.345,1.019,1.019,0,0,1-1.1,0,.6.6,0,0,1-.2-.385l-.041-.424h-1.474l.018.487a1.794,1.794,0,0,0,.327.977,1.965,1.965,0,0,0,.813.665h0a2.666,2.666,0,0,0,1.113.224,2.4,2.4,0,0,0,1.139-.258,1.89,1.89,0,0,0,.771-.715,1.844,1.844,0,0,0,.26-.94,1.692,1.692,0,0,0-.315-1.055,1.812,1.812,0,0,0-.719-.571,6.691,6.691,0,0,0-.9-.308,6.09,6.09,0,0,1-.653-.208.635.635,0,0,1-.255-.18.326.326,0,0,1-.062-.233.366.366,0,0,1,.144-.325A.929.929,0,0,1,215.825,434.151Z" transform="translate(-158.437 -432.416)" fill="#3cbbe5"/>
        <path id="Path_333" data-name="Path 333" d="M245.8,433.022a3.238,3.238,0,0,0-3.137,0,2.959,2.959,0,0,0-1.116,1.136,3.473,3.473,0,0,0,0,3.249,2.961,2.961,0,0,0,1.116,1.136h0a3.228,3.228,0,0,0,3.136,0,2.929,2.929,0,0,0,1.113-1.138,3.5,3.5,0,0,0,0-3.245A2.937,2.937,0,0,0,245.8,433.022Zm-1.572,1a1.6,1.6,0,0,1,.823.209,1.465,1.465,0,0,1,.562.6,1.991,1.991,0,0,1,.216.956,2.031,2.031,0,0,1-.216.962,1.476,1.476,0,0,1-.562.6,1.711,1.711,0,0,1-1.646,0,1.487,1.487,0,0,1-.563-.6,2.032,2.032,0,0,1-.217-.963,1.991,1.991,0,0,1,.216-.956,1.472,1.472,0,0,1,.564-.6A1.583,1.583,0,0,1,244.228,434.022Z" transform="translate(-174.96 -432.418)" fill="#3cbbe5"/>
        <path id="Path_334" data-name="Path 334" d="M265.968,435.73l-2.2-3.341h-.553l-.17-.257v.257h-.529v6.222h1.467v-3.347l2.2,3.347h.559l.163.247v-.247h.531v-6.222h-1.469Z" transform="translate(-187.564 -432.132)" fill="#3cbbe5"/>
        <path id="Path_335" data-name="Path 335" d="M291.806,434.138h1.475v4.844h1.467v-4.844h1.466v-1.378h-4.408Z" transform="translate(-204.839 -432.502)" fill="#3cbbe5"/>
        <path id="Path_336" data-name="Path 336" d="M311.969,435.133h-1.927v-2.373h-1.467v6.222h1.467v-2.47h1.927v2.47h1.467v-6.222h-1.467Z" transform="translate(-214.729 -432.502)" fill="#3cbbe5"/>
        <path id="Path_337" data-name="Path 337" d="M327.349,438.972h3.7V437.6h-2.229v-1.065h2v-1.376h-2V434.12h2.229v-1.376h-3.7Z" transform="translate(-225.802 -432.493)" fill="#3cbbe5"/>
        <path id="Path_338" data-name="Path 338" d="M358.083,436.039a1.965,1.965,0,0,0,.434-1.275,1.9,1.9,0,0,0-.608-1.454,2.36,2.36,0,0,0-1.661-.55h-2.056v6.222h1.467v-2.207h.239l1.307,2.207h1.736l-1.487-2.452A1.843,1.843,0,0,0,358.083,436.039Zm-2.424-1.895h.589a.971.971,0,0,1,.633.158.561.561,0,0,1,.153.461.6.6,0,0,1-.17.471.871.871,0,0,1-.608.171h-.6Z" transform="translate(-241.634 -432.502)" fill="#3cbbe5"/>
        <path id="Path_339" data-name="Path 339" d="M375.34,433.022a3.238,3.238,0,0,0-3.137,0,2.971,2.971,0,0,0-1.116,1.137,3.47,3.47,0,0,0,0,3.249,2.968,2.968,0,0,0,1.115,1.135h0a3.228,3.228,0,0,0,3.136,0,2.918,2.918,0,0,0,1.113-1.138,3.494,3.494,0,0,0,0-3.244A2.928,2.928,0,0,0,375.34,433.022Zm-1.572,1a1.6,1.6,0,0,1,.824.21,1.469,1.469,0,0,1,.563.6,2,2,0,0,1,.216.955,2.021,2.021,0,0,1-.217.962,1.477,1.477,0,0,1-.562.6,1.713,1.713,0,0,1-1.646,0,1.475,1.475,0,0,1-.562-.6,2.021,2.021,0,0,1-.217-.962,2,2,0,0,1,.217-.957,1.468,1.468,0,0,1,.562-.6A1.592,1.592,0,0,1,373.768,434.022Z" transform="translate(-251.36 -432.418)" fill="#3cbbe5"/>
        <path id="Path_340" data-name="Path 340" d="M393.651,432.59l-.086-.235-.086.235h-.536l-2.274,6.152h1.56l.461-1.256h1.75l.461,1.256h1.559l-2.265-6.152Zm-.459,3.521.373-1.021.372,1.021Z" transform="translate(-263.146 -432.263)" fill="#3cbbe5"/>
        <path id="Path_341" data-name="Path 341" d="M415.239,434.233a2.681,2.681,0,0,0-1.158-1.1,3.757,3.757,0,0,0-1.717-.37h-2.033v6.222h2.033a3.784,3.784,0,0,0,1.714-.363,2.649,2.649,0,0,0,1.159-1.1,3.308,3.308,0,0,0,.392-1.638A3.362,3.362,0,0,0,415.239,434.233Zm-3.441-.1h.566a1.8,1.8,0,0,1,1.348.445,1.758,1.758,0,0,1,.444,1.3,1.723,1.723,0,0,1-.442,1.282,1.822,1.822,0,0,1-1.35.44H411.8Z" transform="translate(-274.743 -432.502)" fill="#3cbbe5"/>
      </g>
      <rect id="Rectangle_528" data-name="Rectangle 528" width="9.583" height="1.076" transform="translate(0 27.989)" fill="#3cbbe5"/>
    </g>
    <g id="Group_245" data-name="Group 245" transform="translate(49.437 51.471)">
      <path id="Path_342" data-name="Path 342" d="M100.055,131c-10.667,2.264-18.59,5.476-22.473,7.808a53.528,53.528,0,0,0-5.749,4.023,46.233,46.233,0,0,0-4.122,3.953c-3.173,3.53-6.835,13-8.222,25.768-.443-3.137-2.3-18.529,7.656-29.353a36.386,36.386,0,0,1,12.772-8.5A45.908,45.908,0,0,1,100.055,131Z" transform="translate(-59.062 -98.35)" fill="#39ff14"/>
      <path id="Path_343" data-name="Path 343" d="M249.9,156.424a28.727,28.727,0,0,1-28.7,28.617c-15.849.009-28.994-13.017-28.973-28.708a28.838,28.838,0,1,1,57.676.091Zm-4.3-.817a23.688,23.688,0,0,0-23.5-23.522c-14.622.031-23.929,12.848-23.479,23.675.54,12.99,10.562,23.483,23.533,23.449A23.771,23.771,0,0,0,245.6,155.607Z" transform="translate(-137.6 -96.304)" fill="#3cbbe5"/>
      <path id="Path_344" data-name="Path 344" d="M233.888,186.676a21.47,21.47,0,1,1,21.448-21.342A21.394,21.394,0,0,1,233.888,186.676Zm19.81-21.544a19.831,19.831,0,0,0-19.935-19.778c-10.494.178-19.386,7.593-19.778,19.948-.343,10.8,9.031,19.812,19.928,19.772A19.9,19.9,0,0,0,253.7,165.132Z" transform="translate(-149.417 -105.886)" fill="#007ab6"/>
      <path id="Path_345" data-name="Path 345" d="M259.256,177.715a12.762,12.762,0,0,1-25.523.11,12.762,12.762,0,1,1,25.523-.11Zm-7.026-.107a5.849,5.849,0,0,0-5.743-5.655,5.738,5.738,0,1,0,.189,11.473A5.8,5.8,0,0,0,252.23,177.609Zm-16.864.122a3.489,3.489,0,0,0,.168,1.353,17.929,17.929,0,0,0,1.481,2.158,8.961,8.961,0,0,0,.555-2.381c-.267-5.813,1.5-8.351,7.1-10.233.7-.235,1.222-1,1.827-1.516a5.645,5.645,0,0,0-2.108-.536A10.811,10.811,0,0,0,235.366,177.731Z" transform="translate(-162.079 -118.378)" fill="#3cbbe5"/>
      <path id="Path_346" data-name="Path 346" d="M389.566,190.962a7.3,7.3,0,0,0,.676-7.615,13.512,13.512,0,0,0-2.44-3.716l-5.25-5.81c-.631,8.334-1.734,16.267-4.514,23.881l7.972-3.856A9.346,9.346,0,0,0,389.566,190.962Z" transform="translate(-247.188 -123.63)" fill="none"/>
      <path id="Path_347" data-name="Path 347" d="M390.365,191.494a6.253,6.253,0,0,0,1.487-6.743c-1.6-4.793-5.337-7.771-9.3-10.93l5.25,5.81a13.421,13.421,0,0,1,2.543,3.963,7.232,7.232,0,0,1-.779,7.368,10.064,10.064,0,0,1-3.248,2.7c-.2.12-.414.232-.626.334l-7.654,3.7a26.873,26.873,0,0,0,7.184-2.431A18.776,18.776,0,0,0,390.365,191.494Z" transform="translate(-247.188 -123.63)" fill="#39ff14"/>
      <path id="Path_348" data-name="Path 348" d="M211.6,114.547a11.422,11.422,0,0,0-3.159-7.015,99.749,99.749,0,0,0-7.82-7.262,3.941,3.941,0,0,1-1.151-1.423,3.356,3.356,0,0,1-.254-1.524c.062-1.33.139-10.838.246-24.387-2.585,0-5.109.2-7.592-.037a52.882,52.882,0,0,1-21.123-6.871c-7.835-4.436-15.432-9.3-23.089-14.04a2.3,2.3,0,0,0-2.879-.024c-7.692,4.776-15.329,9.657-23.207,14.111a52.747,52.747,0,0,1-21,6.817c-2.482.238-5.006.038-7.57.038v10.3l11.687.888a64.612,64.612,0,0,0-14.292,3.9c-5.517,2.218-11.6,5.133-17.319,11.1a20.528,20.528,0,0,0-5.875,10.912A21.133,21.133,0,0,0,70.3,124.54a23.977,23.977,0,0,1,1.293-13.21,23.634,23.634,0,0,1,5.839-8.4,40.1,40.1,0,0,1,14.778-8.462,92.053,92.053,0,0,1,25.025-4.585,3.574,3.574,0,0,0,2.645-1.36c9.017-9.931,20.265-14.122,33.471-12.092a36.622,36.622,0,0,1,29.577,46.34c-.878,3.091-2.333,6.019-3.514,9.005a120.077,120.077,0,0,0,18.918-4.137c.61-.188,6.293-2.028,10.109-5.651A8.957,8.957,0,0,0,211.6,114.547Zm-12.54-12.886c3.964,3.159,7.7,6.138,9.3,10.93a6.253,6.253,0,0,1-1.487,6.743,18.777,18.777,0,0,1-5.143,3.776,26.873,26.873,0,0,1-7.184,2.431C197.33,117.928,198.433,109.995,199.064,101.661Z" transform="translate(-63.7 -51.471)" fill="#3cbbe5"/>
      <path id="Path_349" data-name="Path 349" d="M231.28,172.583c.31,1,.64,2,.928,3,2.66,9.305.043,17.129-7.926,22.6a49.907,49.907,0,0,1-9.431,4.976c-8.919,3.627-18.366,5.2-27.833,6.6a8.706,8.706,0,0,0-3.791,1.386,33.466,33.466,0,0,1-14.426,5.708c-14.63,1.972-26.638-2.863-35.546-14.646a35,35,0,0,1-5.788-11.395c-1.462-5.042-1.206-9.349-.948-15.037a83.317,83.317,0,0,1,.959-9.4,142.72,142.72,0,0,0-23.666,7.2,22.811,22.811,0,0,0-7.971,5.748c-3.353,3.759-3.781,8.135-.774,12.148a32.475,32.475,0,0,0,5.868,5.9c4.923,3.884,10.613,6.453,16.366,8.858,1.066.445,2.146.856,3.438,1.37-1.59-2.668-1.61-2.627-3.969-3.76-2.679-1.286-5.379-2.549-7.961-4.014-4.07-2.31-8.017-4.818-10.745-8.789q-4.275-6.222,1.413-11.192h0c1.769-1.769,4.962-3.514,9.748-5.227,0,0,.5,2.687.515,2.743a92.534,92.534,0,0,0,7,22.28,64.853,64.853,0,0,0,9.641,13.631c9.907,10.807,21.978,18.706,34.66,25.776a5.773,5.773,0,0,0,1.347-.1c13.113-1.323,22.773-11.074,29.192-20.256l-11.307-1.488a130.033,130.033,0,0,0,31.15-7.514c7.5-2.847,12.6-5.957,17.342-10.828C236.3,191.132,236.454,181.507,231.28,172.583Z" transform="translate(-79.105 -119.247)" fill="#007ab6"/>
      <path id="Path_350" data-name="Path 350" d="M132.9,187.121" transform="translate(-102.608 -131.475)" fill="#7fd287"/>
      <path id="Path_351" data-name="Path 351" d="M124.892,217.463a18.327,18.327,0,0,0-1.688-1.268q-.377-.25-.742-.468l-.549-.348c-2.664-1.69-5.761-3.684-9.258-5.991a46.7,46.7,0,0,1-6.9-5.977c-1.361-1.362-2.756-2.911-2.856-5.02-.239-5.063,7.163-9.659,8.916-10.748a21.773,21.773,0,0,1,1.994-1.154c-.694.239-1.3.438-2.447.931a32.077,32.077,0,0,0-4.723,2.329c-1.387.914-5.242,3.23-5.758,7.119a7.587,7.587,0,0,0,.189,2.794c.534,2.362,1.876,3.858,3.363,5.476a26.214,26.214,0,0,0,4.509,3.824,48.881,48.881,0,0,0,5.137,3.12s3.566,1.983,7.425,3.7h0Z" transform="translate(-83.694 -131.102)" fill="#39ff14"/>
      <path id="Path_352" data-name="Path 352" d="M397.253,210.757c.977-.271,10.77-3.171,14.348-13.084a21.478,21.478,0,0,0-.906-16.184c.039.119.1.3.163.519a28.62,28.62,0,0,1,.962,9.7C411.408,195.932,406.933,204.418,397.253,210.757Z" transform="translate(-258.521 -128.153)" fill="#39ff14"/>
      <path id="Path_353" data-name="Path 353" d="M289.24,186.815a20.264,20.264,0,0,1-3.089,15.327,20.589,20.589,0,0,1-10.754,7.522,19.489,19.489,0,0,1-2.243.523c-.023,0,.722-.232.793-.253a23.357,23.357,0,0,0,15.292-23.119Z" transform="translate(-185.33 -131.294)" fill="#39ff14"/>
      <path id="Path_354" data-name="Path 354" d="M306.643,263.319s53.455,11.069,55.09-18.688C361.733,244.631,359.654,268.926,306.643,263.319Z" transform="translate(-205.081 -165.393)" fill="#39ff14"/>
    </g>
  </g>
</svg>
