<svg xmlns="http://www.w3.org/2000/svg" width="79" height="79" viewBox="0 0 79 79">
  <g id="Group_560" data-name="Group 560" transform="translate(0.392 0.449)">
    <path id="Union_3" data-name="Union 3" d="M38.986,78a38.989,38.989,0,1,1,.023,0Z" transform="translate(0.108 0.051)" fill="#00acee" stroke="rgba(0,0,0,0)" stroke-width="1"/>
    <g id="Group_559" data-name="Group 559" transform="translate(18.012 22.209)">
      <path id="Path_342" data-name="Path 342" d="M1519.921,60.505c-3.984-.42-7.333-2.961-7.88-5.94h3.526l.049-.16a8.757,8.757,0,0,1-6.681-8.495,9.172,9.172,0,0,0,3.864,1.06,8.661,8.661,0,0,1-3.538-5.226,8.442,8.442,0,0,1,.935-6.145,24.484,24.484,0,0,0,17.586,8.915c-.046-.358-.086-.644-.12-.931a8.53,8.53,0,0,1,14.384-7.183.725.725,0,0,0,.773.22,17.851,17.851,0,0,0,4.442-1.684c.133-.071.268-.137.513-.263a8.707,8.707,0,0,1-3.56,4.591l.077.165,4.623-1.264c-.693.814-1.317,1.617-2.016,2.346a20.15,20.15,0,0,1-1.855,1.639.838.838,0,0,0-.353.74,24.7,24.7,0,0,1-8.121,18.917A22.34,22.34,0,0,1,1524,67.6a24.344,24.344,0,0,1-15.195-2.715,15.293,15.293,0,0,1-1.319-.806A17.559,17.559,0,0,0,1519.921,60.505Z" transform="translate(-1507.483 -34.011)" fill="#fff"/>
    </g>
  </g>
</svg>
